<svg id="Layer_3" enable-background="new 0 0 64 64" height="512" viewBox="0 0 64 64" width="512" xmlns="http://www.w3.org/2000/svg"><g><path d="m16 18h46v32h-46z" fill="#4d5d79"/><circle cx="32" cy="34" fill="#3c98f4" r="12"/><path d="m2 8h8v54h6v-60h-14z" fill="#88929f"/><path d="m10 12h-6v20c1.105 0 2 .895 2 2 0 1.105-.895 2-2 2v4c1.105 0 2 .895 2 2 0 1.105-.895 2-2 2v16h6z" fill="#4d5d79"/><path d="m20 14h40v4h-40z" fill="#88929f"/><path d="m20 50h12v4h-12z" fill="#88929f"/><path d="m36 50h12v4h-12z" fill="#88929f"/><path d="m52 50h4v4h-4z" fill="#88929f"/><circle cx="32" cy="34" fill="#c7e2fb" r="3"/><g fill="#2a74c7"><path d="m35.153 22.433-1.032 1.032c-2.013 2.013-3.121 4.688-3.121 7.535v.184c.314-.112.647-.184 1-.184s.686.072 1 .184v-.184c0-2.312.9-4.486 2.536-6.121l1.675-1.676c-.655-.317-1.342-.576-2.058-.77z"/><path d="m26 23.618v1.382c0 2.847 1.108 5.522 3.122 7.535l.179.179c.296-.619.795-1.118 1.414-1.414l-.179-.179c-1.636-1.635-2.536-3.809-2.536-6.121v-2.303c-.699.248-1.367.555-2 .921z"/><path d="m29 33c-2.312 0-4.486-.9-6.122-2.535l-1.675-1.676c-.317.656-.576 1.342-.77 2.058l1.032 1.032c2.013 2.013 4.689 3.121 7.535 3.121h.184c-.112-.314-.184-.647-.184-1s.072-.686.184-1z"/><path d="m29.3 35.286-.179.179c-1.635 1.635-3.809 2.535-6.121 2.535h-2.303c.247.699.555 1.367.921 2h1.382c2.846 0 5.522-1.108 7.536-3.121l.179-.179c-.62-.296-1.119-.794-1.415-1.414z"/><path d="m31 36.816v.184c0 2.312-.9 4.486-2.536 6.121l-1.675 1.676c.655.317 1.342.576 2.058.77l1.032-1.032c2.013-2.013 3.121-4.688 3.121-7.535v-.184c-.314.112-.647.184-1 .184s-.686-.072-1-.184z"/><path d="m34.7 35.286c-.296.619-.795 1.118-1.414 1.414l.179.179c1.635 1.635 2.535 3.809 2.535 6.121v2.303c.699-.247 1.367-.555 2-.921v-1.382c0-2.847-1.108-5.522-3.122-7.535z"/><path d="m42.536 36.121c-2.014-2.013-4.69-3.121-7.536-3.121h-.184c.112.314.184.647.184 1s-.072.686-.184 1h.184c2.312 0 4.486.9 6.122 2.535l1.675 1.676c.317-.656.576-1.343.77-2.058z"/><path d="m43.303 30c-.247-.699-.555-1.367-.921-2h-1.382c-2.846 0-5.522 1.108-7.536 3.121l-.178.179c.62.296 1.118.794 1.414 1.414l.179-.179c1.635-1.635 3.809-2.535 6.121-2.535z"/></g><path d="m48 22h10v10h-10z" fill="#c1c8d1"/><path d="m46 42h4v4h-4z" fill="#c1c8d1"/><path d="m54 42h4v4h-4z" fill="#c1c8d1"/><g><path d="m50 35h2v2h-2z" fill="#f5b95b"/></g><g><path d="m54 37h2v2h-2z" fill="#f5b95b"/></g></g></svg>