<svg height="512pt" viewBox="0 0 512 512" width="512pt" xmlns="http://www.w3.org/2000/svg"><path d="m385.601562 448c-49.890624 0-66.5625-62.335938-84.210937-128.335938-16.574219-61.953124-33.695313-125.96875-74.191406-127.632812v.128906l-4.816407-.144531c-40.671874 2.304687-57.695312 66-74.191406 127.648437-17.632812 66-34.304687 128.335938-84.191406 128.335938v-32c25.3125 0 39.535156-53.183594 53.296875-104.625 18.976563-70.941406 40.480469-151.375 106.703125-151.375h1.601562c66.222657 0 87.726563 80.433594 106.703126 151.375 13.757812 51.441406 27.984374 104.625 53.296874 104.625zm0 0" fill="#fdd835"/><path d="m512 512h-512v-512h32v480h480zm0 0" fill="#b0bec5"/><path d="m312 243.519531c-1.441406 8-2.878906 15.519531-4 22.082031-2.878906 16-5.601562 31.679688-8.480469 46.878907-16-59.519531-33.441406-118.71875-72.320312-120.480469v.160156l-3.199219-.160156c2.078125-10.71875 4.320312-21.441406 6.71875-31.839844 41.921875 2.71875 64.960938 38.878906 81.28125 83.359375zm0 0" fill="#fbc02d"/><path d="m512 448c-50.992188 0-66.511719-87.054688-84.464844-187.871094-15.582031-87.375-34.960937-196.128906-75.535156-196.128906s-59.953125 108.753906-75.535156 196.128906c-17.953125 100.816406-33.472656 187.871094-84.464844 187.871094v-32c24.191406 0 41.503906-97.183594 52.976562-161.488281 19.488282-109.390625 39.648438-222.511719 107.023438-222.511719s87.535156 113.121094 107.023438 222.511719c11.472656 64.304687 28.785156 161.488281 52.976562 161.488281zm0 0" fill="#7c4dff"/></svg>