<svg height="300" viewBox="0 0 100 100" width="300" xmlns="http://www.w3.org/2000/svg"><path d="m18.03125 960.36219c-5.5498 0-10.0312505 4.45808-10.0312505 10v63.96871c0 5.542 4.4814505 10.0313 10.0312505 10.0313h63.96875c5.549801 0 10-4.4893 10-10.0313v-63.96871c0-5.54192-4.450199-10-10-10zm63.96875 6c2.209141 0 4 1.79086 4 4s-1.790859 4-4 4c-2.20914 0-4-1.79086-4-4s1.79086-4 4-4zm-32 4c17.649419 0 32 14.35058 32 32.00001 0 17.6494-14.350581 32-32 32-17.649421 0-32.000001-14.3506-32.000001-32 0-17.64943 14.35058-32 32.000001-32zm-14.65625 8.15625 10.84375 6.25c2.972431-.6118 6.100179-.45981 8.8125.3125l-2.8125-10.625c-5.846594-.30838-12.470539 1.43453-16.84375 4.0625zm21.125-3.40625 3.25 12.125c2.507689 1.61913 4.583309 3.84767 6.03125 6.46875l5.53125-9.5625c-3.789511-4.42136-8.94775-7.64844-14.8125-9.03125zm-24.687501 5.96875c-4.41386 3.78308-7.64455 8.92888-9.03125 14.78125l12.156251-3.25c1.61328-2.49061 3.80266-4.58813 6.40625-6.03125zm42.093751 6.59375-6.3125 10.875c.643731 2.97321.492994 6.09341-.28125 8.81251l10.625-2.8437c.29565-5.84144-1.405384-12.47946-4.03125-16.84381zm-41.125 9.65625-10.656251 2.84376c-.304955 5.8555 1.426955 12.4973 4.0625 16.875l6.250001-10.875c-.625754-2.9875-.439174-6.1205.34375-8.84376zm44.5 11.49996-12.125 3.25c-1.6137 2.494-3.831261 4.5867-6.4375 6.0313l9.53125 5.5c4.416579-3.7888 7.64941-8.9206 9.03125-14.7813zm-43 2.1875-5.531251 9.5313c3.7914 4.4334 8.93736 7.6772 14.812501 9.0625l-3.28125-12.1563c-2.49753-1.6177-4.55636-3.8245-6-6.4375zm10.75 8.625 2.84375 10.625c5.8454.301 12.475272-1.4325 16.84375-4.0625l-10.875-6.2813c-2.959338.6253-6.023438.4925-8.8125-.2812z" transform="translate(0 -952.36218)"/></svg>