<!-- Created by AFY Studio https://thenounproject.com/AFYstudio/ -->
<svg height='300px' width='300px' fill="#000000" 
    xmlns:dc="http://purl.org/dc/elements/1.1/" 
    xmlns:cc="http://creativecommons.org/ns#" 
    xmlns:rdf="http://www.w3.org/1999/02/22-rdf-syntax-ns#" 
    xmlns:svg="http://www.w3.org/2000/svg" 
    xmlns="http://www.w3.org/2000/svg" 
    xmlns:sodipodi="http://sodipodi.sourceforge.net/DTD/sodipodi-0.dtd" 
    xmlns:inkscape="http://www.inkscape.org/namespaces/inkscape" version="1.1" x="0px" y="0px" viewBox="0 0 100 100">
    <g transform="translate(0,-952.36218)">
        <path d="m 18.03125,960.36219 c -5.5498,0 -10.0312505,4.45808 -10.0312505,10 l 0,63.96871 c 0,5.542 4.4814505,10.0313 10.0312505,10.0313 l 63.96875,0 c 5.549801,0 10,-4.4893 10,-10.0313 l 0,-63.96871 c 0,-5.54192 -4.450199,-10 -10,-10 z m 63.96875,6 c 2.209141,0 4,1.79086 4,4 0,2.20914 -1.790859,4 -4,4 -2.20914,0 -4,-1.79086 -4,-4 0,-2.20914 1.79086,-4 4,-4 z m -32,4 c 17.649419,0 32,14.35058 32,32.00001 0,17.6494 -14.350581,32 -32,32 -17.649421,0 -32.000001,-14.3506 -32.000001,-32 0,-17.64943 14.35058,-32 32.000001,-32 z m -14.65625,8.15625 10.84375,6.25 c 2.972431,-0.6118 6.100179,-0.45981 8.8125,0.3125 l -2.8125,-10.625 c -5.846594,-0.30838 -12.470539,1.43453 -16.84375,4.0625 z m 21.125,-3.40625 3.25,12.125 c 2.507689,1.61913 4.583309,3.84767 6.03125,6.46875 l 5.53125,-9.5625 c -3.789511,-4.42136 -8.94775,-7.64844 -14.8125,-9.03125 z m -24.687501,5.96875 c -4.41386,3.78308 -7.64455,8.92888 -9.03125,14.78125 l 12.156251,-3.25 c 1.61328,-2.49061 3.80266,-4.58813 6.40625,-6.03125 z m 42.093751,6.59375 -6.3125,10.875 c 0.643731,2.97321 0.492994,6.09341 -0.28125,8.81251 l 10.625,-2.8437 C 78.2019,998.67706 76.500866,992.03904 73.875,987.67469 z m -41.125,9.65625 -10.656251,2.84376 c -0.304955,5.8555 1.426955,12.4973 4.0625,16.875 l 6.250001,-10.875 c -0.625754,-2.9875 -0.439174,-6.1205 0.34375,-8.84376 z m 44.5,11.49996 -12.125,3.25 c -1.6137,2.494 -3.831261,4.5867 -6.4375,6.0313 l 9.53125,5.5 c 4.416579,-3.7888 7.64941,-8.9206 9.03125,-14.7813 z m -43,2.1875 -5.531251,9.5313 c 3.7914,4.4334 8.93736,7.6772 14.812501,9.0625 L 40.25,1017.4559 c -2.49753,-1.6177 -4.55636,-3.8245 -6,-6.4375 z m 10.75,8.625 2.84375,10.625 c 5.8454,0.301 12.475272,-1.4325 16.84375,-4.0625 l -10.875,-6.2813 c -2.959338,0.6253 -6.023438,0.4925 -8.8125,-0.2812 z" style="color:#000000;enable-background:accumulate;" fill="#000000" stroke="none" marker="none" visibility="visible" display="inline" overflow="visible"></path>
    </g>
</svg>