<?xml version="1.0" encoding="UTF-8" standalone="no"?>
<svg xmlns="http://www.w3.org/2000/svg" height="108" width="108" version="1.0" viewBox="0 0 108 108">
	<g stroke-linejoin="round" stroke="#000" stroke-width="0.3">
		<path d="m28.85,79.15,25-15,0-10z" fill="#00b3ff"/>
		<path d="m28.85,79.15,15-25,10,0z" fill="#0FF"/>
		<path d="m28.85,29.15,15,25,10,0z" fill="#00b3ff"/>
		<path d="m28.85,29.15,25,15,0,10z" fill="#0FF"/>
		<path d="m78.85,29.15-25,15,0,10z" fill="#00b3ff"/>
		<path d="m78.85,29.15-15,25-10,0z" fill="#0FF"/>
		<path d="m78.85,79.15-15-25-10,0z" fill="#00b3ff"/>
		<path d="m78.85,79.15-25-15,0-10z" fill="#0FF"/>
		<path d="m14,54,32,8,8-8z" fill="#03F"/>
		<path d="m14,54,32-8,8,8z" fill="#c8ffff"/>
		<path d="m54,14-8,32,8,8z" fill="#03F"/>
		<path d="m54,14,8,32-8,8z" fill="#c8ffff"/>
		<path d="M94,54,62,46,54,54z" fill="#03F"/>
		<path d="M94,54,62,62,54,54z" fill="#c8ffff"/>
		<path d="M54,94,62,62,54,54z" fill="#03F"/>
		<path d="M54,94,46,62,54,54z" fill="#c8ffff"/>
	</g>
	<path d="m49.6728,3.96288,2.15625,0,4.85742,5.95899,0-4.58204c0-0.48827-0.0547-0.79296-0.16406-0.91406-0.1444-0.16405-0.3729-0.24608-0.6854-0.24609h-0.2754v-0.2168h2.76563v0.2168h-0.28125c-0.33595,0.00001-0.57423,0.10157-0.71484,0.30469-0.086,0.125-0.12892,0.41016-0.12891,0.85546v6.69727h-0.2109l-5.2383-6.39844v4.89258c0,0.48828,0.0527,0.79297,0.1582,0.91406,0.14844,0.16407,0.37695,0.2461,0.68555,0.2461h0.28125v0.21679h-2.7655v-0.2168h0.27539c0.33984,0,0.58007-0.10157,0.7207-0.30469,0.0859-0.125,0.1289-0.41016,0.12891-0.85547v-5.52535c-0.2305-0.26952-0.4053-0.44726-0.5244-0.5332-0.1192-0.0859-0.294-0.16601-0.5244-0.24024-0.1133-0.0352-0.2852-0.0527-0.5157-0.0527z"/>
	<path d="m98.8574,50.4609,0,3.14062,1.7461,0c0.45312,0.00001,0.75585-0.0684,0.9082-0.20507,0.20312-0.17969,0.3164-0.49609,0.33984-0.94922h0.2168v2.76562h-0.2168c-0.0547-0.38671-0.10938-0.63476-0.16406-0.74414-0.0703-0.13671-0.18555-0.24414-0.3457-0.32226-0.16016-0.0781-0.40626-0.11719-0.73828-0.11719h-1.7461v2.61914c0,0.35156,0.0156,0.56543,0.0469,0.6416,0.0312,0.0762,0.0859,0.13672,0.16406,0.18164,0.0781,0.0449,0.22656,0.0674,0.44531,0.0674h1.34766c0.44921,0,0.77539-0.0312,0.97852-0.0937,0.20311-0.0625,0.39843-0.18554,0.58593-0.36914,0.24218-0.24218,0.49023-0.60742,0.74414-1.0957h0.23438l-0.68555,1.99219h-6.12305v-0.2168h0.28125c0.1875,0,0.36524-0.0449,0.53321-0.13477,0.125-0.0625,0.20996-0.15625,0.25488-0.28125,0.0449-0.12499,0.0674-0.38085,0.0674-0.76757v-5.16211c0-0.5039-0.0508-0.81445-0.15234-0.93164-0.14063-0.15625-0.375-0.23437-0.70313-0.23438h-0.28125v-0.2168h6.12305l0.0879,1.74024h-0.22851c-0.082-0.41796-0.17286-0.70507-0.27246-0.86133-0.0996-0.15624-0.24708-0.27538-0.44239-0.35742-0.15625-0.0586-0.43164-0.0879-0.82617-0.0879z"/>
	<path d="m13.5371,49.9365,0,0.2168c-0.20704,0.00001-0.37501,0.0371-0.50391,0.11133-0.12891,0.0742-0.25196,0.2129-0.36914,0.41601-0.0781,0.13673-0.20118,0.4629-0.36914,0.97852l-2.21484,6.4043h-0.23451l-1.81054-5.08-1.79883,5.0801h-0.21094l-2.36133-6.5977c-0.17578-0.4922-0.28711-0.7832-0.33398-0.873-0.0781-0.1485-0.18457-0.2588-0.31934-0.3311-0.13476-0.0723-0.31738-0.1084-0.54785-0.1084v-0.2168h2.94141v0.2168h-0.14063c-0.20703,0.00001-0.36523,0.0469-0.47461,0.14063-0.10937,0.0937-0.16406,0.20703-0.16406,0.33984,0,0.13673,0.0859,0.45118,0.25781,0.94336l1.56446,4.45898,1.31836-3.79101-0.23438-0.66797-0.1875-0.5332c-0.082-0.1953-0.17383-0.3671-0.27539-0.5156-0.0508-0.0742-0.11329-0.1367-0.1875-0.1875-0.0977-0.0703-0.19532-0.1211-0.29297-0.1523-0.0742-0.0234-0.19141-0.0352-0.35156-0.0352v-0.2168h3.09375v0.2168h-0.21094c-0.21875,0.00001-0.37891,0.0469-0.48047,0.14063-0.10157,0.0937-0.15235,0.22071-0.15234,0.38086-0.00001,0.19922,0.0879,0.54688,0.26367,1.04296l1.52344,4.31836,1.51172-4.37695c0.17186-0.48437,0.2578-0.82031,0.25781-1.00781-0.00001-0.0898-0.0283-0.17382-0.085-0.25196-0.0566-0.0781-0.12794-0.1328-0.21387-0.16406-0.14845-0.0547-0.3418-0.082-0.58008-0.082v-0.2168z"/>
	<path d="m56.1123,95.8457,0,2.74805-0.2168,0c-0.0703-0.52734-0.1963-0.94726-0.37793-1.25976-0.18165-0.3125-0.44043-0.56054-0.77637-0.74415-0.33594-0.18358-0.6836-0.27538-1.04297-0.27539-0.40625,0.00001-0.74219,0.12403-1.00781,0.37207-0.26563,0.24806-0.39844,0.53028-0.39844,0.84668,0,0.2422,0.084,0.4629,0.25196,0.66211,0.24218,0.29298,0.81835,0.6836,1.72851,1.17188,0.74219,0.39844,1.24902,0.7041,1.52051,0.91699,0.27148,0.21289,0.48046,0.46387,0.62695,0.75293,0.14648,0.28907,0.21972,0.5918,0.21973,0.9082-0.00001,0.60157-0.2334,1.12012-0.7002,1.55567-0.4668,0.43554-1.06738,0.65332-1.80175,0.65332-0.23048,0-0.44727-0.0176-0.65039-0.0527-0.1211-0.0195-0.37208-0.0908-0.75293-0.21386-0.38087-0.12305-0.62208-0.18457-0.72364-0.18457-0.0976,0-0.1748,0.0293-0.23144,0.0879-0.0566,0.0586-0.0986,0.17968-0.12598,0.36328h-0.2168v-2.72461h0.2168c0.10156,0.57031,0.23828,0.99707,0.41016,1.28027,0.17187,0.28321,0.43457,0.51856,0.78808,0.70606,0.35352,0.1875,0.74121,0.28125,1.16309,0.28125,0.48828,0,0.87402-0.12891,1.15723-0.38672,0.28319-0.25781,0.4248-0.5625,0.4248-0.91406,0-0.19532-0.0537-0.39258-0.16113-0.5918s-0.27442-0.38476-0.50098-0.55664c-0.15235-0.11719-0.56836-0.36621-1.24805-0.74707s-1.16308-0.68457-1.45019-0.91114c-0.28711-0.22655-0.50488-0.47655-0.65332-0.75-0.14844-0.27343-0.22266-0.57421-0.22266-0.90234,0-0.57031,0.21875-1.06152,0.65625-1.47363,0.4375-0.4121,0.99414-0.61816,1.66992-0.61817,0.42188,0.00001,0.86914,0.10353,1.3418,0.31055,0.21875,0.0977,0.37304,0.14649,0.46289,0.14649,0.10156,0,0.18457-0.0303,0.24903-0.0908,0.0644-0.0605,0.1162-0.1826,0.15527-0.36621z"/>
	<path d="m14.4766,18.9524,1.61719,0,3.64307,4.46924,0-3.43652c-0.00001-0.36621-0.041-0.59472-0.12305-0.68555-0.1084-0.12304-0.27979-0.18456-0.51416-0.18457h-0.20654v-0.1626h2.07422v0.1626h-0.21094c-0.25196,0.00001-0.43067,0.0762-0.53613,0.22852-0.0645,0.0937-0.0967,0.30762-0.0967,0.6416v5.02295h-0.1583l-3.92871-4.79883v3.66943c0,0.36621,0.0395,0.59473,0.11865,0.68555,0.11133,0.12305,0.28272,0.18457,0.51416,0.18457h0.21094v0.1626h-2.07422v-0.1626h0.20655c0.25488,0,0.43505-0.0762,0.54052-0.22852,0.0645-0.0937,0.0967-0.30761,0.0967-0.6416v-4.14404c-0.17285-0.20214-0.30395-0.33544-0.39331-0.3999-0.0894-0.0644-0.22046-0.12451-0.39331-0.18018-0.085-0.0264-0.21386-0.0395-0.38672-0.0395z"/>
	<path d="m29.5234,18.9524,0,0.1626c-0.15528,0.00001-0.28126,0.0278-0.37793,0.0835-0.0967,0.0557-0.18897,0.15967-0.27686,0.31201-0.0586,0.10254-0.15088,0.34717-0.27685,0.73389l-1.66113,4.80322h-0.17579l-1.35791-3.81006-1.34912,3.81006h-0.1582l-1.771-4.94824c-0.13183-0.36914-0.21533-0.5874-0.25048-0.65479-0.0586-0.11132-0.13843-0.19409-0.23951-0.24829-0.10107-0.0542-0.23803-0.0813-0.41089-0.0813v-0.1626h2.20606v0.1626h-0.10547c-0.15528,0.00001-0.27393,0.0352-0.35596,0.10547-0.082,0.0703-0.12305,0.15528-0.12304,0.25488-0.00001,0.10255,0.0645,0.33839,0.19336,0.70752l1.17334,3.34424,0.98877-2.84326-0.17579-0.50098-0.14062-0.3999c-0.0615-0.14648-0.13038-0.27539-0.20654-0.38672-0.0381-0.0557-0.085-0.10253-0.14063-0.14062-0.0732-0.0527-0.14649-0.0908-0.21973-0.11426-0.0557-0.0176-0.14355-0.0264-0.26367-0.0264v-0.1626h2.32032v0.1626h-0.15821c-0.16407,0.00001-0.28418,0.0352-0.36035,0.10547-0.0762,0.0703-0.11426,0.16553-0.11426,0.28564,0,0.14942,0.0659,0.41017,0.19776,0.78223l1.14257,3.23877,1.13379-3.28271c0.1289-0.36328,0.19336-0.61523,0.19336-0.75586,0-0.0674-0.0212-0.13037-0.0637-0.18897s-0.096-0.0996-0.1604-0.12305c-0.11133-0.041-0.25635-0.0615-0.43506-0.0615v-0.1626z"/>
	<path d="m80.0432,18.9722,1.61719,0,3.64307,4.46924,0-3.43653c-0.00001-0.3662-0.041-0.59472-0.12305-0.68554-0.1084-0.12304-0.27979-0.18457-0.51416-0.18457h-0.20654v-0.1626h2.07422v0.1626h-0.21094c-0.25196,0-0.43067,0.0762-0.53613,0.22851-0.0645,0.0938-0.0967,0.30762-0.0967,0.6416v5.02295h-0.15821l-3.92871-4.79883v3.66944c0,0.36621,0.0396,0.59473,0.11865,0.68555,0.11133,0.12304,0.28272,0.18457,0.51417,0.18457h0.21093v0.16259h-2.07422v-0.16259h0.20655c0.25488,0,0.43505-0.0762,0.54052-0.22852,0.0645-0.0937,0.0967-0.30762,0.0967-0.6416v-4.14404c-0.17285-0.20215-0.30395-0.33545-0.39331-0.39991-0.0893-0.0644-0.22046-0.1245-0.39331-0.18017-0.085-0.0264-0.21386-0.0396-0.38672-0.0396z"/>
	<path d="m88.5466,19.2974,0,2.35547,1.30957,0c0.33984,0.00001,0.56689-0.0513,0.68115-0.15381,0.15234-0.13476,0.23731-0.37206,0.25489-0.71191h0.1626v2.07422h-0.1626c-0.041-0.29004-0.082-0.47607-0.12305-0.55811-0.0527-0.10253-0.13916-0.1831-0.25928-0.2417s-0.30469-0.0879-0.55371-0.0879h-1.30957v1.96436c0,0.26367,0.0117,0.42407,0.0352,0.4812,0.0234,0.0571,0.0645,0.10254,0.12305,0.13623,0.0586,0.0337,0.16991,0.0505,0.33398,0.0505h1.01074c0.33691,0,0.58154-0.0234,0.73389-0.0703,0.15234-0.0469,0.29882-0.13916,0.43945-0.27686,0.18164-0.18164,0.36767-0.45557,0.55811-0.82178h0.17578l-0.51416,1.49414h-4.59229v-0.16259h0.21094c0.14062,0,0.27393-0.0337,0.3999-0.10108,0.0937-0.0469,0.15747-0.11719,0.19116-0.21094,0.0337-0.0937,0.0505-0.28564,0.0505-0.57568v-3.87158c0-0.37793-0.0381-0.61084-0.11426-0.69873-0.10547-0.11718-0.28125-0.17578-0.52734-0.17578h-0.21094v-0.1626h4.59229l0.0659,1.30517h-0.17139c-0.0615-0.31347-0.12964-0.5288-0.20435-0.64599-0.0747-0.11718-0.1853-0.20654-0.33178-0.26807-0.1172-0.0439-0.32374-0.0659-0.61963-0.0659z"/>
	<path d="m84.6948,80.8843,0,2.06103-0.1626,0c-0.0527-0.3955-0.14722-0.71044-0.28345-0.94482-0.13623-0.23437-0.33033-0.42041-0.58228-0.55811-0.25195-0.13769-0.51269-0.20653-0.78222-0.20654-0.30469,0.00001-0.55664,0.093-0.75586,0.27905-0.19922,0.18604-0.29883,0.39771-0.29883,0.63501,0,0.18165,0.063,0.34718,0.18897,0.49659,0.18163,0.21973,0.61376,0.51269,1.29638,0.8789,0.55664,0.29883,0.93677,0.52808,1.14038,0.68775s0.36035,0.3479,0.47022,0.56469c0.10986,0.2168,0.16479,0.44385,0.16479,0.68116,0,0.45117-0.17505,0.84008-0.52514,1.16674-0.3501,0.32666-0.80054,0.48999-1.35132,0.48999-0.17286,0-0.33545-0.0132-0.48779-0.0395-0.0908-0.0147-0.27906-0.0681-0.5647-0.1604-0.28565-0.0923-0.46656-0.13843-0.54273-0.13843-0.0732,0-0.1311,0.022-0.17358,0.0659-0.0425,0.0439-0.074,0.13477-0.0945,0.27246h-0.1626v-2.04345h0.1626c0.0762,0.42773,0.17871,0.7478,0.30761,0.9602,0.12891,0.2124,0.32593,0.38892,0.59107,0.52954,0.26513,0.14063,0.5559,0.21094,0.87231,0.21094,0.36621,0,0.65552-0.0967,0.86792-0.29004,0.2124-0.19336,0.3186-0.42187,0.31861-0.68555-0.00001-0.14648-0.0403-0.29443-0.12085-0.44384-0.0806-0.14942-0.20582-0.28858-0.37574-0.41748-0.11426-0.0879-0.42627-0.27466-0.93603-0.56031-0.50977-0.28564-0.87232-0.51342-1.08765-0.68335-0.21533-0.16991-0.37866-0.35741-0.48999-0.5625-0.11133-0.20507-0.16699-0.43066-0.16699-0.67675,0-0.42773,0.16406-0.79614,0.49219-1.10523,0.32812-0.30908,0.7456-0.46362,1.25244-0.46362,0.3164,0,0.65185,0.0776,1.00635,0.23291,0.16406,0.0732,0.27978,0.10987,0.34716,0.10986,0.0762,0.00001,0.13843-0.0227,0.18677-0.0681,0.0483-0.0454,0.0872-0.13696,0.11646-0.27466z"/>
	<path d="m87.459,81.3457,0,2.35547,1.30957,0c0.33984,0.00001,0.56689-0.0513,0.68115-0.15381,0.15234-0.13476,0.2373-0.37206,0.25488-0.71191h0.1626v2.07422h-0.1626c-0.041-0.29004-0.082-0.47607-0.12305-0.55811-0.0527-0.10253-0.13916-0.1831-0.25927-0.2417-0.12012-0.0586-0.30469-0.0879-0.55371-0.0879h-1.30957v1.96436c-0.00001,0.26367,0.0117,0.42407,0.0351,0.4812,0.0234,0.0571,0.0645,0.10254,0.12305,0.13623,0.0586,0.0337,0.16992,0.0505,0.33398,0.0505h1.01075c0.33691,0,0.58153-0.0234,0.73388-0.0703,0.15234-0.0469,0.29883-0.13916,0.43945-0.27686,0.18164-0.18164,0.36768-0.45557,0.55811-0.82178h0.17578l-0.51416,1.49414h-4.59228v-0.16259h0.21093c0.14063,0,0.27393-0.0337,0.39991-0.10108,0.0937-0.0469,0.15747-0.11719,0.19116-0.21094,0.0337-0.0937,0.0505-0.28564,0.0505-0.57568v-3.87158c-0.00001-0.37793-0.0381-0.61084-0.11426-0.69873-0.10547-0.11718-0.28125-0.17578-0.52735-0.17578h-0.211v-0.1626h4.59228l0.0659,1.30517h-0.17139c-0.0615-0.31347-0.12964-0.5288-0.20434-0.64599-0.0747-0.11718-0.18531-0.20654-0.33179-0.26807-0.11719-0.0439-0.32373-0.0659-0.61963-0.0659z"/>
	<path d="m19.1282,82.8843,0,2.06103-0.16259,0c-0.0527-0.3955-0.14722-0.71044-0.28345-0.94482-0.13623-0.23437-0.33033-0.42041-0.58228-0.55811-0.25195-0.13769-0.51269-0.20653-0.78222-0.20654-0.30469,0.00001-0.55664,0.093-0.75586,0.27905-0.19922,0.18604-0.29883,0.39771-0.29883,0.63501,0,0.18165,0.063,0.34718,0.18897,0.49659,0.18163,0.21973,0.61376,0.51269,1.29638,0.8789,0.55664,0.29883,0.93677,0.52808,1.14038,0.68775s0.36035,0.3479,0.47022,0.56469c0.10986,0.2168,0.16479,0.44385,0.16479,0.68116,0,0.45117-0.17505,0.84008-0.52514,1.16674-0.35011,0.32666-0.80054,0.48999-1.35132,0.48999-0.17286,0-0.33545-0.0132-0.4878-0.0395-0.0908-0.0147-0.27905-0.0681-0.56469-0.1604-0.28565-0.0923-0.46656-0.13843-0.54273-0.13843-0.0732,0-0.1311,0.022-0.17358,0.0659-0.0425,0.0439-0.074,0.13477-0.0945,0.27246h-0.1626v-2.04345h0.1626c0.0762,0.42773,0.17871,0.7478,0.30761,0.9602,0.12891,0.2124,0.32593,0.38892,0.59107,0.52954,0.26513,0.14063,0.5559,0.21094,0.87231,0.21094,0.36621,0,0.65552-0.0967,0.86792-0.29004,0.2124-0.19336,0.3186-0.42187,0.31861-0.68555-0.00001-0.14648-0.0403-0.29443-0.12085-0.44384-0.0806-0.14942-0.20582-0.28858-0.37574-0.41748-0.11426-0.0879-0.42627-0.27466-0.93603-0.56031-0.50977-0.28564-0.87232-0.51342-1.08765-0.68335-0.21533-0.16991-0.37866-0.35741-0.48999-0.5625-0.11133-0.20507-0.16699-0.43066-0.16699-0.67675,0-0.42773,0.16406-0.79614,0.49219-1.10523,0.32812-0.30908,0.7456-0.46362,1.25244-0.46362,0.3164,0,0.65185,0.0776,1.00635,0.23291,0.16406,0.0732,0.27978,0.10987,0.34716,0.10986,0.0762,0.00001,0.13843-0.0227,0.18677-0.0681,0.0483-0.0454,0.0872-0.13696,0.11646-0.27466z"/>
	<path d="m28.4358,83.0205,0,0.1626c-0.15528,0-0.28126,0.0278-0.37793,0.0835-0.0967,0.0557-0.18897,0.15968-0.27685,0.31201-0.0586,0.10255-0.15089,0.34718-0.27686,0.73389l-1.66113,4.80322h-0.17577l-1.35793-3.81-1.3491,3.81h-0.15821l-1.77099-4.9482c-0.13184-0.36913-0.21534-0.5874-0.25049-0.65478-0.0586-0.11133-0.13843-0.19409-0.2395-0.2483-0.10108-0.0542-0.23804-0.0813-0.41089-0.0813v-0.1626h2.20605v0.1626h-0.1055c-0.15527,0-0.27392,0.0352-0.35595,0.10546-0.082,0.0703-0.12305,0.15528-0.12305,0.25489,0,0.10254,0.0645,0.33838,0.19336,0.70752l1.17334,3.34424,0.98877-2.84327-0.17578-0.50097-0.14063-0.39991c-0.0615-0.14647-0.13037-0.27538-0.20654-0.38671-0.0381-0.0557-0.085-0.10254-0.14063-0.14063-0.0732-0.0527-0.14648-0.0908-0.21972-0.11426-0.0557-0.0176-0.14356-0.0264-0.26367-0.0264v-0.1626h2.32031v0.1626h-0.1582c-0.16407,0-0.28419,0.0352-0.36036,0.10546-0.0762,0.0703-0.11426,0.16554-0.11425,0.28565-0.00001,0.14942,0.0659,0.41016,0.19775,0.78223l1.14258,3.23877,1.13379-3.28272c0.1289-0.36328,0.19335-0.61523,0.19336-0.75586-0.00001-0.0674-0.0213-0.13036-0.0637-0.18896-0.0425-0.0586-0.096-0.0996-0.1604-0.12305-0.11134-0.041-0.25636-0.0615-0.43506-0.0615v-0.1626z"/>
</svg>
