<svg enable-background="new 0 0 56 56" viewBox="0 0 56 56" xmlns="http://www.w3.org/2000/svg"><path d="m0 0h28v28h-28z" fill="#fad400"/><path d="m28 0h28v28h-28z" fill="#ff8c00"/><path d="m0 28h28v28h-28z" fill="#ff8c00"/><path d="m28 28h28v28h-28z" fill="#556080"/><g fill="#fff"><path d="m48 46h-12c-.552 0-1-.447-1-1s.448-1 1-1h12c.552 0 1 .447 1 1s-.448 1-1 1z"/><path d="m48 40h-12c-.552 0-1-.447-1-1s.448-1 1-1h12c.552 0 1 .447 1 1s-.448 1-1 1z"/><path d="m14 43c-.256 0-.512-.098-.707-.293-.391-.391-.391-1.023 0-1.414l5-5c.391-.391 1.023-.391 1.414 0s.391 1.023 0 1.414l-5 5c-.195.195-.451.293-.707.293z"/><path d="m9 48c-.256 0-.512-.098-.707-.293-.391-.391-.391-1.023 0-1.414l5-5c.391-.391 1.023-.391 1.414 0s.391 1.023 0 1.414l-5 5c-.195.195-.451.293-.707.293z"/><path d="m19 48c-.256 0-.512-.098-.707-.293l-5-5c-.391-.391-.391-1.023 0-1.414s1.023-.391 1.414 0l5 5c.391.391.391 1.023 0 1.414-.195.195-.451.293-.707.293z"/><path d="m14 43c-.256 0-.512-.098-.707-.293l-5-5c-.391-.391-.391-1.023 0-1.414s1.023-.391 1.414 0l5 5c.391.391.391 1.023 0 1.414-.195.195-.451.293-.707.293z"/><path d="m20 15h-12c-.552 0-1-.447-1-1s.448-1 1-1h12c.552 0 1 .447 1 1s-.448 1-1 1z"/><path d="m14 21c-.552 0-1-.447-1-1v-12c0-.553.448-1 1-1s1 .447 1 1v12c0 .553-.448 1-1 1z"/><path d="m48 15h-12c-.552 0-1-.447-1-1s.448-1 1-1h12c.552 0 1 .447 1 1s-.448 1-1 1z"/></g></svg>