<svg enable-background="new 0 0 100 100" height="300" viewBox="0 0 100 100" width="300" xmlns="http://www.w3.org/2000/svg"><g fill="none"><path d="m81.729 20.789c-1.724 0-3.092 1.368-3.092 3.092 0 1.697 1.368 3.065 3.092 3.065 1.697 0 3.064-1.368 3.064-3.065 0-1.724-1.368-3.092-3.064-3.092z"/><path d="m71.33 20.789c-1.696 0-3.065 1.368-3.065 3.092 0 1.697 1.368 3.065 3.065 3.065 1.724 0 3.092-1.368 3.092-3.065.001-1.724-1.368-3.092-3.092-3.092z"/><path d="m60.959 20.789c-1.696 0-3.065 1.368-3.065 3.092 0 1.697 1.368 3.065 3.065 3.065s3.092-1.368 3.092-3.065c.001-1.724-1.395-3.092-3.092-3.092z"/><path d="m45.116 43.036c-1.97-1.15-4.433.246-4.433 2.517v27.829c0 2.244 2.463 3.667 4.433 2.517l23.697-13.901c1.916-1.149 1.916-3.94 0-5.062z"/></g><path d="m77.378 15.453h-54.756c-8.838 0-16.172 6.513-17.403 14.995h89.562c-1.231-8.482-8.565-14.995-17.403-14.995zm-16.419 11.493c-1.696 0-3.065-1.368-3.065-3.065 0-1.724 1.368-3.092 3.065-3.092s3.092 1.368 3.092 3.092c.001 1.697-1.395 3.065-3.092 3.065zm10.371 0c-1.696 0-3.065-1.368-3.065-3.065 0-1.724 1.368-3.092 3.065-3.092 1.724 0 3.092 1.368 3.092 3.092.001 1.697-1.368 3.065-3.092 3.065zm10.399 0c-1.724 0-3.092-1.368-3.092-3.065 0-1.724 1.368-3.092 3.092-3.092 1.697 0 3.064 1.368 3.064 3.092 0 1.697-1.368 3.065-3.064 3.065z"/><path d="m5 36.03v30.894c0 9.742 7.881 17.622 17.622 17.622h54.755c9.742.001 17.623-7.88 17.623-17.622v-30.894zm63.813 25.969-23.697 13.901c-1.97 1.149-4.433-.274-4.433-2.517v-27.83c0-2.271 2.463-3.667 4.433-2.517l23.697 13.9c1.915 1.123 1.915 3.913 0 5.063z"/></svg>