<svg height="512pt" viewBox="0 0 512 512.001" width="512pt" xmlns="http://www.w3.org/2000/svg"><path d="m497 0h-106l-30 30v61l30 30h106c8.292969 0 15-6.710938 15-15v-91c0-8.289062-6.707031-15-15-15zm0 0" fill="#f03800"/><path d="m391 0v121h-376c-8.402344 0-15-6.601562-15-15v-91c0-8.402344 6.597656-15 15-15zm0 0" fill="#64e1dc"/><path d="m286 0h105v121h-105zm0 0" fill="#00c8c8"/><path d="m417.402344 211c-18.902344 0-33.902344 15-33.902344 33.601562v-30c0-18.601562-15-33.601562-33.898438-33.601562-18.601562 0-33.601562 15-33.601562 33.601562v-30c0-17.402343-13.199219-31.5-30-33.300781-1.199219-.300781-2.402344-.300781-3.597656-.300781-18.902344 0-33.902344 15-33.902344 33.601562v-90c0-18.601562-15-33.601562-33.898438-33.601562-18.601562 0-33.601562 15-33.601562 33.601562v122.097657l-35.097656 17.699219c-15.300782 7.5-24.902344 23.101562-24.902344 40.203124v16.5c0 56.699219 21.300781 109.796876 60 150.597657v55.300781c0 8.398438 6.597656 15 15 15h180c8.402344 0 15-6.601562 15-15v-55c38.699219-40.800781 60-94.199219 60-150.902344v-46.5c0-18.597656-15-33.597656-33.597656-33.597656zm0 0" fill="#ffe1ba"/><path d="m451 244.601562v46.5c0 56.699219-21.300781 110.097657-60 150.898438v55c0 8.398438-6.597656 15-15 15h-90v-360.699219c16.800781 1.800781 30 15.898438 30 33.300781v30c0-18.601562 15-33.601562 33.601562-33.601562 18.898438 0 33.898438 15 33.898438 33.601562v30c0-18.601562 15-33.601562 33.902344-33.601562 18.597656 0 33.597656 15 33.597656 33.601562zm0 0" fill="#ffc473"/></svg>