<?xml version="1.0" encoding="iso-8859-1"?>
<!-- Generator: Adobe Illustrator 19.0.0, SVG Export Plug-In . SVG Version: 6.00 Build 0)  -->
<svg version="1.1" id="Layer_1" xmlns="http://www.w3.org/2000/svg" xmlns:xlink="http://www.w3.org/1999/xlink" x="0px" y="0px"
	 viewBox="0 0 512 512" style="enable-background:new 0 0 512 512;" xml:space="preserve">
<path style="fill:#EFEFEF;" d="M64,512h384V0H64V512z M405.328,466.216H106.664v-10.664h298.664V466.216z M405.328,444.888H106.664
	v-10.664h298.664V444.888z M405.328,423.552H106.664v-10.664h298.664V423.552z M405.328,380.888H106.664v-10.664h298.664V380.888z
	 M189.336,44.888H408v32H189.336V44.888z M104,44.888h53.336v32H104V44.888z M104,124.888c0-8.8,7.2-16,16-16h116.368h39.256H392
	c8.8,0,16,7.2,16,16v197.336c0,8.8-7.2,16-16,16H120c-8.8,0-16-7.2-16-16V124.888z"/>
<rect x="106.664" y="370.224" style="fill:#2D2D2D;" width="298.64" height="10.664"/>
<g>
	<rect x="106.664" y="412.888" style="fill:#C9C9C9;" width="298.64" height="10.664"/>
	<rect x="106.664" y="434.224" style="fill:#C9C9C9;" width="298.64" height="10.664"/>
	<rect x="106.664" y="455.552" style="fill:#C9C9C9;" width="298.64" height="10.664"/>
</g>
<g>
	<path style="fill:#DB2B42;" d="M120,338.216h272c8.8,0,16-7.2,16-16V124.888c0-8.8-7.2-16-16-16H275.632v103.544l42.088-42.912
		l28.016,27.336L256,288.344l-89.728-91.488l28.016-27.336l42.088,42.912V108.888H120c-8.8,0-16,7.2-16,16v197.336
		C104,331.016,111.2,338.216,120,338.216z"/>
	<rect x="104" y="44.888" style="fill:#DB2B42;" width="53.336" height="32"/>
</g>
<rect x="189.336" y="44.888" style="fill:#C9C9C9;" width="218.664" height="32"/>
<polygon style="fill:#FFFFFF;" points="194.288,169.52 166.272,196.856 256,288.344 345.728,196.856 317.712,169.52 
	275.632,212.432 275.632,108.888 236.368,108.888 236.368,212.432 "/>
<g>
</g>
<g>
</g>
<g>
</g>
<g>
</g>
<g>
</g>
<g>
</g>
<g>
</g>
<g>
</g>
<g>
</g>
<g>
</g>
<g>
</g>
<g>
</g>
<g>
</g>
<g>
</g>
<g>
</g>
</svg>
