<svg height="512" viewBox="0 0 128 128" width="512" xmlns="http://www.w3.org/2000/svg"><g><path d="m15.35 6.5h80.15a0 0 0 0 1 0 0v106.154a0 0 0 0 1 0 0h-89a0 0 0 0 1 0 0v-97.304a8.85 8.85 0 0 1 8.85-8.85z" fill="#6aa8fb"/><g fill="#5283c3"><path d="m12.5 83.442a1.75 1.75 0 0 1 -1.75-1.75v-19.442a1.75 1.75 0 0 1 3.5 0v19.442a1.75 1.75 0 0 1 -1.75 1.75z"/><path d="m95.5 103.81v17.69h-80.15a8.845 8.845 0 1 1 0-17.69z"/><path d="m23.667 18.75h54.667v43.647h-54.667z"/></g><g fill="#eaeaf0"><path d="m78.333 79.8h-54.666a1.75 1.75 0 0 1 0-3.5h54.666a1.75 1.75 0 0 1 0 3.5z"/><path d="m78.333 89.446h-54.666a1.75 1.75 0 0 1 0-3.5h54.666a1.75 1.75 0 0 1 0 3.5z"/></g><path d="m95.5 110.9v3.5h-76.17a1.75 1.75 0 0 1 0-3.5z" fill="#eaeaf0"/><path d="m121.5 30.75c0 .59-.02 1.17-.07 1.75a24.2 24.2 0 0 1 -23.57 22.49c-.2.01-.41.01-.61.01s-.41 0-.61-.01a24.2 24.2 0 0 1 -23.57-22.49c-.05-.58-.07-1.16-.07-1.75s.02-1.17.07-1.75a24.2 24.2 0 0 1 23.57-22.49c.2-.01.41-.01.61-.01s.41 0 .61.01a24.2 24.2 0 0 1 23.57 22.49c.05.58.07 1.16.07 1.75z" fill="#c7e554"/><path d="m121.43 29h-11.57c-.23-9.13-2.28-16.82-5.43-21.42a24.212 24.212 0 0 0 -6.57-1.07c3.98.83 8.15 9.75 8.51 22.49h-18.24c.36-12.74 4.53-21.66 8.51-22.49a24.212 24.212 0 0 0 -6.57 1.07c-3.15 4.6-5.2 12.29-5.43 21.42h-11.57c-.05.58-.07 1.16-.07 1.75s.02 1.17.07 1.75h11.57c.23 9.13 2.28 16.82 5.43 21.42a24.212 24.212 0 0 0 6.57 1.07c-3.98-.83-8.15-9.75-8.51-22.49h18.24c-.36 12.74-4.53 21.66-8.51 22.49a24.212 24.212 0 0 0 6.57-1.07c3.15-4.6 5.2-12.29 5.43-21.42h11.57c.05-.58.07-1.16.07-1.75s-.02-1.17-.07-1.75z" fill="#97ad40"/></g></svg>