<svg enable-background="new 0 0 1024 1024" height="300" viewBox="0 0 1024 1024" width="300" xmlns="http://www.w3.org/2000/svg"><path d="m780.7 74h-537.4c-36.4 0-65.9 29.5-65.9 65.9v744.2c0 36.4 29.5 65.9 65.9 65.9h537.4c36.4 0 65.9-29.5 65.9-65.9v-744.2c0-36.4-29.5-65.9-65.9-65.9zm-396.7 783.1h-133.3v-113.3h133.3zm0-168.8h-133.3v-113.3h133.3zm0-168.9h-133.3v-113.2h133.3zm194.6 337.7h-133.2v-113.3h133.3v113.3zm0-168.8h-133.2v-113.3h133.3v113.3zm0-168.9h-133.2v-113.2h133.3v113.2zm194.7 337.7h-133.3v-282.1h133.3zm0-337.7h-133.3v-113.2h133.3zm0-177.7h-522.6v-186.3h522.6z"/><path d="m773.3 321.7c-17.3 0-34.6 0-51.9 0-41.6 0-83.2 0-124.8 0-50.3 0-100.6 0-151 0-43.5 0-87 0-130.5 0-21.1 0-42.4-.9-63.5 0-.3 0-.6 0-.9 0 6.7 6.7 13.3 13.3 20 20 0-20.9 0-41.8 0-62.7 0-33.5 0-67 0-100.6 0-7.7 0-15.3 0-23-6.7 6.7-13.3 13.3-20 20h51.9 124.8 151 130.5c21.1 0 42.4.9 63.5 0h.9c-6.7-6.7-13.3-13.3-20-20v62.7 100.6 23c0 10.5 9.2 20.5 20 20s20-8.8 20-20c0-20.9 0-41.8 0-62.7 0-33.5 0-67 0-100.6 0-7.7 0-15.3 0-23 0-10.8-9.2-20-20-20-17.3 0-34.6 0-51.9 0-41.6 0-83.2 0-124.8 0-50.3 0-100.6 0-151 0-43.5 0-87 0-130.5 0-21.1 0-42.4-.5-63.5 0-.3 0-.6 0-.9 0-10.8 0-20 9.2-20 20v62.7 100.6 23c0 10.8 9.2 20 20 20h51.9 124.8 151 130.5c21.1 0 42.4.5 63.5 0h.9c10.5 0 20.5-9.2 20-20-.5-10.9-8.8-20-20-20z"/><path d="m773.3 499.4c-38.9 0-77.8 0-116.8 0-5.5 0-11 0-16.5 0 6.7 6.7 13.3 13.3 20 20 0-33.1 0-66.1 0-99.2 0-4.7 0-9.4 0-14.1-6.7 6.7-13.3 13.3-20 20h116.8 16.5c-6.7-6.7-13.3-13.3-20-20v99.2 14.1c0 10.5 9.2 20.5 20 20s20-8.8 20-20c0-33.1 0-66.1 0-99.2 0-4.7 0-9.4 0-14.1 0-10.8-9.2-20-20-20-38.9 0-77.8 0-116.8 0-5.5 0-11 0-16.5 0-10.8 0-20 9.2-20 20v99.2 14.1c0 10.8 9.2 20 20 20h116.8 16.5c10.5 0 20.5-9.2 20-20s-8.8-20-20-20z"/><path d="m773.3 837.1c-38.9 0-77.8 0-116.8 0-5.5 0-11 0-16.5 0l20 20c0-32 0-63.9 0-95.9 0-50.5 0-101 0-151.5 0-11.6 0-23.2 0-34.8-6.7 6.7-13.3 13.3-20 20h116.8 16.5c-6.7-6.7-13.3-13.3-20-20v95.9 151.5 34.8c0 10.5 9.2 20.5 20 20s20-8.8 20-20c0-32 0-63.9 0-95.9 0-50.5 0-101 0-151.5 0-11.6 0-23.2 0-34.8 0-10.8-9.2-20-20-20-38.9 0-77.8 0-116.8 0-5.5 0-11 0-16.5 0-10.8 0-20 9.2-20 20v95.9 151.5 34.8c0 10.8 9.2 20 20 20h116.8 16.5c10.5 0 20.5-9.2 20-20-.5-10.9-8.8-20-20-20z"/><path d="m578.6 499.4c-38.9 0-77.8 0-116.8 0-5.5 0-11 0-16.5 0 6.7 6.7 13.3 13.3 20 20 0-33.1 0-66.1 0-99.2 0-4.7 0-9.4 0-14.1-6.7 6.7-13.3 13.3-20 20h116.8 16.5c-6.7-6.7-13.3-13.3-20-20v99.2 14.1c0 10.5 9.2 20.5 20 20s20-8.8 20-20c0-33.1 0-66.1 0-99.2 0-4.7 0-9.4 0-14.1 0-10.8-9.2-20-20-20-38.9 0-77.8 0-116.8 0-5.5 0-11 0-16.5 0-10.8 0-20 9.2-20 20v99.2 14.1c0 10.8 9.2 20 20 20h116.8 16.5c10.5 0 20.5-9.2 20-20-.4-10.8-8.7-20-20-20z"/><path d="m578.6 668.3c-38.9 0-77.8 0-116.8 0-5.5 0-11 0-16.5 0l20 20c0-33.1 0-66.1 0-99.2 0-4.7 0-9.4 0-14.1-6.7 6.7-13.3 13.3-20 20h116.8 16.5c-6.7-6.7-13.3-13.3-20-20v99.2 14.1c0 10.5 9.2 20.5 20 20s20-8.8 20-20c0-33.1 0-66.1 0-99.2 0-4.7 0-9.4 0-14.1 0-10.8-9.2-20-20-20-38.9 0-77.8 0-116.8 0-5.5 0-11 0-16.5 0-10.8 0-20 9.2-20 20v99.2 14.1c0 10.8 9.2 20 20 20h116.8 16.5c10.5 0 20.5-9.2 20-20-.4-10.9-8.7-20-20-20z"/><path d="m578.6 837.1c-38.9 0-77.8 0-116.8 0-5.5 0-11 0-16.5 0 6.7 6.7 13.3 13.3 20 20 0-33.1 0-66.1 0-99.2 0-4.7 0-9.4 0-14.1-6.7 6.7-13.3 13.3-20 20h116.8 16.5c-6.7-6.7-13.3-13.3-20-20v99.2 14.1c0 10.5 9.2 20.5 20 20s20-8.8 20-20c0-33.1 0-66.1 0-99.2 0-4.7 0-9.4 0-14.1 0-10.8-9.2-20-20-20-38.9 0-77.8 0-116.8 0-5.5 0-11 0-16.5 0-10.8 0-20 9.2-20 20v99.2 14.1c0 10.8 9.2 20 20 20h116.8 16.5c10.5 0 20.5-9.2 20-20-.4-10.9-8.7-20-20-20z"/><path d="m384 499.4c-38.9 0-77.8 0-116.8 0-5.5 0-11 0-16.5 0 6.7 6.7 13.3 13.3 20 20 0-33.1 0-66.1 0-99.2 0-4.7 0-9.4 0-14.1-6.7 6.7-13.3 13.3-20 20h116.8 16.5c-6.7-6.7-13.3-13.3-20-20v99.2 14.1c0 10.5 9.2 20.5 20 20s20-8.8 20-20c0-33.1 0-66.1 0-99.2 0-4.7 0-9.4 0-14.1 0-10.8-9.2-20-20-20-38.9 0-77.8 0-116.8 0-5.5 0-11 0-16.5 0-10.8 0-20 9.2-20 20v99.2 14.1c0 10.8 9.2 20 20 20h116.8 16.5c10.5 0 20.5-9.2 20-20s-8.8-20-20-20z"/><path d="m384 668.3c-38.9 0-77.8 0-116.8 0-5.5 0-11 0-16.5 0l20 20c0-33.1 0-66.1 0-99.2 0-4.7 0-9.4 0-14.1-6.7 6.7-13.3 13.3-20 20h116.8 16.5c-6.7-6.7-13.3-13.3-20-20v99.2 14.1c0 10.5 9.2 20.5 20 20s20-8.8 20-20c0-33.1 0-66.1 0-99.2 0-4.7 0-9.4 0-14.1 0-10.8-9.2-20-20-20-38.9 0-77.8 0-116.8 0-5.5 0-11 0-16.5 0-10.8 0-20 9.2-20 20v99.2 14.1c0 10.8 9.2 20 20 20h116.8 16.5c10.5 0 20.5-9.2 20-20-.5-10.9-8.8-20-20-20z"/><path d="m384 837.1c-38.9 0-77.8 0-116.8 0-5.5 0-11 0-16.5 0 6.7 6.7 13.3 13.3 20 20 0-33.1 0-66.1 0-99.2 0-4.7 0-9.4 0-14.1-6.7 6.7-13.3 13.3-20 20h116.8 16.5c-6.7-6.7-13.3-13.3-20-20v99.2 14.1c0 10.5 9.2 20.5 20 20s20-8.8 20-20c0-33.1 0-66.1 0-99.2 0-4.7 0-9.4 0-14.1 0-10.8-9.2-20-20-20-38.9 0-77.8 0-116.8 0-5.5 0-11 0-16.5 0-10.8 0-20 9.2-20 20v99.2 14.1c0 10.8 9.2 20 20 20h116.8 16.5c10.5 0 20.5-9.2 20-20-.5-10.9-8.8-20-20-20z"/><path d="m780.7 54c-7.9 0-15.7 0-23.6 0-20.8 0-41.6 0-62.4 0-29.2 0-58.4 0-87.6 0-33.3 0-66.7 0-100 0-33.1 0-66.2 0-99.4 0-28.7 0-57.4 0-86.1 0-19.6 0-39.2 0-58.9 0-12.4 0-24.7-.5-37 1.9-40.3 7.6-68.2 45.3-68.3 85.4v26.7 55.2 76.9 92.3 100 101.3 95.8 83.9 64.3 38.4 7.3c.1 18.9 6 37.4 17.6 52.4 16.4 21.3 41.3 33.8 68.3 34h6.6 45.2 76.9 96.1 101.3 93.9 73.5 40.1c8 0 16-.6 23.9-2.4 25.3-5.8 47.8-24.5 58-48.4 6.5-15.1 7.7-30.3 7.7-46.3 0-14.1 0-28.1 0-42.2 0-22.5 0-45.1 0-67.6 0-28.5 0-57 0-85.5 0-32.3 0-64.6 0-96.9 0-34 0-68 0-102 0-33.1 0-66.2 0-99.3 0-30.1 0-60.2 0-90.3 0-24.8 0-49.6 0-74.5 0-17.3 0-34.7 0-52 0-7.4 0-14.8 0-22.2-.2-47.2-38.6-85.7-85.8-86.2-10.5-.1-20.5 9.3-20 20 .5 10.9 8.8 19.9 20 20 1.4 0 2.8 0 4.2.1.7 0 1.4.1 2.1.2 2.2.1-1.9-.3-1.9-.3 2.8.8 5.7 1 8.5 1.8 1.3.4 2.5.8 3.8 1.2.1 0 1.9.6 1.9.7s-3.7-1.8-1.7-.7c2.5 1.3 5.1 2.5 7.5 4 1.3.8 2.5 1.8 3.8 2.5 2 1.1-1.7-1.1-1.4-1.2.2 0 1.3 1.1 1.5 1.2 2.1 1.8 4.2 3.7 6.1 5.8.9 1 1.7 2 2.6 2.9 2.4 2.8-1.9-3 0 .1 1.5 2.4 3.1 4.7 4.4 7.3.6 1.2 1.1 2.4 1.7 3.5 1 2-.9-1.7-.7-1.7.1 0 .6 1.7.7 1.9.9 2.8 1.7 5.5 2.3 8.3.3 1.3.3 2.7.7 4 0-.1-.4-4.2-.3-1.9 0 .7.1 1.4.2 2.1.1 1.4.1 2.8.1 4.2v1.5 26.4 54.4 75.8 90.6 98.8 100.4 95 83.9 65.7 41 9.1 1.4c0 1.6-.1 3.2-.2 4.9 0 .5-.3 1.5-.2 2.1 0 0 .7-4.2.3-1.9-.3 1.5-.5 3.1-.9 4.6-.6 2.6-1.5 5.1-2.3 7.7-1.1 3.5 1.6-3.2 0 .1-.7 1.4-1.3 2.8-2.1 4.1-1.3 2.3-2.9 4.4-4.1 6.6-1.1 2 1.2-1.7 1.2-1.4 0 .2-1.1 1.3-1.2 1.5-1 1.1-2 2.3-3 3.4-2 2-4.1 3.8-6.2 5.7-1.6 1.5 1.4-1.3 1.5-1.2 0 .1-1.5 1-1.6 1.1-1.3.8-2.5 1.7-3.9 2.4-1 .6-6 4-7 3.6-.2-.1 4-1.4 1.7-.8-.6.2-1.3.5-1.9.7-1.5.5-3 .9-4.5 1.3-1.3.3-2.6.6-3.9.9-.8.1-5.2 1-2 .4 3.1-.6-1.3 0-2.1.1-1.2.1-2.3.1-3.5.1-2.1 0-4.2 0-6.3 0-14.7 0-29.4 0-44 0-25.1 0-50.3 0-75.4 0-31.4 0-62.8 0-94.2 0-33.5 0-66.9 0-100.4 0-31.3 0-62.6 0-93.8 0-24.9 0-49.8 0-74.7 0-14.3 0-28.6 0-42.9 0-2.8 0-5.6.1-8.4-.1-1.2 0-3-.6-4.1-.3 0 0 4.2.7 1.9.3-.7-.1-1.3-.2-2-.3-2.8-.5-5.7-1.3-8.4-2.2-.6-.2-1.2-.5-1.9-.6-1.5-.5-1.4.2-.1 0s1.5.7 0 0c-.6-.3-1.2-.6-1.8-.9-2.5-1.3-5-2.7-7.3-4.2-.5-.4-1-.8-1.6-1.1-2-1.1 1.7 1.1 1.4 1.2-.6.1-2.5-2.1-3-2.5-2.1-1.9-4.1-3.9-5.9-6-.4-.5-.8-1-1.3-1.5-1.1-1.3-.2-1.3 0 0 .1 1.2.9 1.3 0-.1-.3-.5-.7-1.1-1.1-1.6-1.7-2.6-3.1-5.2-4.5-8-.1-.2-.9-1.6-.8-1.8s1.4 4 .8 1.7c-.3-1.3-.9-2.5-1.3-3.8-.9-2.8-1.5-5.6-2-8.5-.7-3.8.2 3.8 0-.1-.1-1.4-.2-2.8-.2-4.1 0-.5 0-1 0-1.5s0-1.1 0-1.6c0-3.2 0-6.4 0-9.5 0-13.9 0-27.8 0-41.7 0-22.1 0-44.2 0-66.3 0-28.1 0-56.2 0-84.3 0-31.9 0-63.8 0-95.7 0-33.5 0-67 0-100.5 0-32.9 0-65.8 0-98.7 0-30.1 0-60.2 0-90.3 0-25.1 0-50.2 0-75.3 0-17.9 0-35.8 0-53.7 0-8.5 0-17 0-25.5 0-.4 0-.8 0-1.2 0-2 .8-5 .4-6.9 0 0-.7 4.2-.3 1.9.1-.7.2-1.3.3-2 .3-1.5.6-3.1 1-4.6s.8-3 1.3-4.5c.2-.6.5-1.3.7-1.9.5-2.3-.6 2-.8 1.7-.5-1.1 3.3-6.5 3.9-7.6.7-1.1 1.4-2.2 2.1-3.3.1-.1 1-1.6 1.1-1.6s-2.6 3.1-1.2 1.5c1.9-2.1 3.6-4.3 5.7-6.2.9-.9 1.9-1.8 2.9-2.6.5-.4 1-.8 1.5-1.2 1.6-1.5-1.4 1.3-1.5 1.2-.2-.6 6.4-4.1 7.2-4.5 1.2-.6 2.3-1.2 3.5-1.8.2-.1 1.6-.9 1.8-.8s-4 1.4-1.7.8c2.8-.7 5.5-1.9 8.3-2.5 1.3-.3 2.6-.5 4-.8 3.6-.7-4.4.4.8 0 1.6-.1 3.2-.2 4.9-.2 8.1-.1 16.3 0 24.5 0h61.9 86.3 99 98.6 85.6 59.9 21.6c10.5 0 20.5-9.2 20-20-.7-10.6-9-19.8-20.2-19.8z"/></svg>