<svg height='300px' width='300px' fill="#000000" 
    xmlns="http://www.w3.org/2000/svg" 
    xmlns:xlink="http://www.w3.org/1999/xlink" version="1.1" x="0px" y="0px" viewBox="0 0 1024 1024" style="enable-background:new 0 0 1024 1024;" xml:space="preserve">
    <g>
        <g>
            <path d="M780.7,74H243.3c-36.4,0-65.9,29.5-65.9,65.9v744.2c0,36.4,29.5,65.9,65.9,65.9h537.4    c36.4,0,65.9-29.5,65.9-65.9V139.9C846.6,103.5,817.1,74,780.7,74z M384,857.1H250.7V743.8H384V857.1z M384,688.3H250.7V575H384    V688.3z M384,519.4H250.7V406.2H384V519.4z M578.6,857.1H445.4V743.8h133.3V857.1z M578.6,688.3H445.4V575h133.3V688.3z     M578.6,519.4H445.4V406.2h133.3V519.4z M773.3,857.1H640V575h133.3V857.1z M773.3,519.4H640V406.2h133.3V519.4z M773.3,341.7    H250.7V155.4h522.6V341.7z"></path>
            <g>
                <path d="M773.3,321.7c-17.3,0-34.6,0-51.9,0c-41.6,0-83.2,0-124.8,0c-50.3,0-100.6,0-151,0c-43.5,0-87,0-130.5,0     c-21.1,0-42.4-0.9-63.5,0c-0.3,0-0.6,0-0.9,0c6.7,6.7,13.3,13.3,20,20c0-20.9,0-41.8,0-62.7c0-33.5,0-67,0-100.6     c0-7.7,0-15.3,0-23c-6.7,6.7-13.3,13.3-20,20c17.3,0,34.6,0,51.9,0c41.6,0,83.2,0,124.8,0c50.3,0,100.6,0,151,0     c43.5,0,87,0,130.5,0c21.1,0,42.4,0.9,63.5,0c0.3,0,0.6,0,0.9,0c-6.7-6.7-13.3-13.3-20-20c0,20.9,0,41.8,0,62.7     c0,33.5,0,67,0,100.6c0,7.7,0,15.3,0,23c0,10.5,9.2,20.5,20,20c10.8-0.5,20-8.8,20-20c0-20.9,0-41.8,0-62.7c0-33.5,0-67,0-100.6     c0-7.7,0-15.3,0-23c0-10.8-9.2-20-20-20c-17.3,0-34.6,0-51.9,0c-41.6,0-83.2,0-124.8,0c-50.3,0-100.6,0-151,0     c-43.5,0-87,0-130.5,0c-21.1,0-42.4-0.5-63.5,0c-0.3,0-0.6,0-0.9,0c-10.8,0-20,9.2-20,20c0,20.9,0,41.8,0,62.7     c0,33.5,0,67,0,100.6c0,7.7,0,15.3,0,23c0,10.8,9.2,20,20,20c17.3,0,34.6,0,51.9,0c41.6,0,83.2,0,124.8,0c50.3,0,100.6,0,151,0     c43.5,0,87,0,130.5,0c21.1,0,42.4,0.5,63.5,0c0.3,0,0.6,0,0.9,0c10.5,0,20.5-9.2,20-20C792.8,330.8,784.5,321.7,773.3,321.7z"></path>
                <path d="M773.3,499.4c-38.9,0-77.8,0-116.8,0c-5.5,0-11,0-16.5,0c6.7,6.7,13.3,13.3,20,20c0-33.1,0-66.1,0-99.2     c0-4.7,0-9.4,0-14.1c-6.7,6.7-13.3,13.3-20,20c38.9,0,77.8,0,116.8,0c5.5,0,11,0,16.5,0c-6.7-6.7-13.3-13.3-20-20     c0,33.1,0,66.1,0,99.2c0,4.7,0,9.4,0,14.1c0,10.5,9.2,20.5,20,20c10.8-0.5,20-8.8,20-20c0-33.1,0-66.1,0-99.2c0-4.7,0-9.4,0-14.1     c0-10.8-9.2-20-20-20c-38.9,0-77.8,0-116.8,0c-5.5,0-11,0-16.5,0c-10.8,0-20,9.2-20,20c0,33.1,0,66.1,0,99.2c0,4.7,0,9.4,0,14.1     c0,10.8,9.2,20,20,20c38.9,0,77.8,0,116.8,0c5.5,0,11,0,16.5,0c10.5,0,20.5-9.2,20-20C792.8,508.6,784.5,499.4,773.3,499.4z"></path>
                <path d="M773.3,837.1c-38.9,0-77.8,0-116.8,0c-5.5,0-11,0-16.5,0c6.7,6.7,13.3,13.3,20,20c0-32,0-63.9,0-95.9     c0-50.5,0-101,0-151.5c0-11.6,0-23.2,0-34.8c-6.7,6.7-13.3,13.3-20,20c38.9,0,77.8,0,116.8,0c5.5,0,11,0,16.5,0     c-6.7-6.7-13.3-13.3-20-20c0,32,0,63.9,0,95.9c0,50.5,0,101,0,151.5c0,11.6,0,23.2,0,34.8c0,10.5,9.2,20.5,20,20     c10.8-0.5,20-8.8,20-20c0-32,0-63.9,0-95.9c0-50.5,0-101,0-151.5c0-11.6,0-23.2,0-34.8c0-10.8-9.2-20-20-20     c-38.9,0-77.8,0-116.8,0c-5.5,0-11,0-16.5,0c-10.8,0-20,9.2-20,20c0,32,0,63.9,0,95.9c0,50.5,0,101,0,151.5c0,11.6,0,23.2,0,34.8     c0,10.8,9.2,20,20,20c38.9,0,77.8,0,116.8,0c5.5,0,11,0,16.5,0c10.5,0,20.5-9.2,20-20C792.8,846.2,784.5,837.1,773.3,837.1z"></path>
                <path d="M578.6,499.4c-38.9,0-77.8,0-116.8,0c-5.5,0-11,0-16.5,0c6.7,6.7,13.3,13.3,20,20c0-33.1,0-66.1,0-99.2     c0-4.7,0-9.4,0-14.1c-6.7,6.7-13.3,13.3-20,20c38.9,0,77.8,0,116.8,0c5.5,0,11,0,16.5,0c-6.7-6.7-13.3-13.3-20-20     c0,33.1,0,66.1,0,99.2c0,4.7,0,9.4,0,14.1c0,10.5,9.2,20.5,20,20c10.8-0.5,20-8.8,20-20c0-33.1,0-66.1,0-99.2c0-4.7,0-9.4,0-14.1     c0-10.8-9.2-20-20-20c-38.9,0-77.8,0-116.8,0c-5.5,0-11,0-16.5,0c-10.8,0-20,9.2-20,20c0,33.1,0,66.1,0,99.2c0,4.7,0,9.4,0,14.1     c0,10.8,9.2,20,20,20c38.9,0,77.8,0,116.8,0c5.5,0,11,0,16.5,0c10.5,0,20.5-9.2,20-20C598.2,508.6,589.9,499.4,578.6,499.4z"></path>
                <path d="M578.6,668.3c-38.9,0-77.8,0-116.8,0c-5.5,0-11,0-16.5,0c6.7,6.7,13.3,13.3,20,20c0-33.1,0-66.1,0-99.2     c0-4.7,0-9.4,0-14.1c-6.7,6.7-13.3,13.3-20,20c38.9,0,77.8,0,116.8,0c5.5,0,11,0,16.5,0c-6.7-6.7-13.3-13.3-20-20     c0,33.1,0,66.1,0,99.2c0,4.7,0,9.4,0,14.1c0,10.5,9.2,20.5,20,20c10.8-0.5,20-8.8,20-20c0-33.1,0-66.1,0-99.2c0-4.7,0-9.4,0-14.1     c0-10.8-9.2-20-20-20c-38.9,0-77.8,0-116.8,0c-5.5,0-11,0-16.5,0c-10.8,0-20,9.2-20,20c0,33.1,0,66.1,0,99.2c0,4.7,0,9.4,0,14.1     c0,10.8,9.2,20,20,20c38.9,0,77.8,0,116.8,0c5.5,0,11,0,16.5,0c10.5,0,20.5-9.2,20-20C598.2,677.4,589.9,668.3,578.6,668.3z"></path>
                <path d="M578.6,837.1c-38.9,0-77.8,0-116.8,0c-5.5,0-11,0-16.5,0c6.7,6.7,13.3,13.3,20,20c0-33.1,0-66.1,0-99.2     c0-4.7,0-9.4,0-14.1c-6.7,6.7-13.3,13.3-20,20c38.9,0,77.8,0,116.8,0c5.5,0,11,0,16.5,0c-6.7-6.7-13.3-13.3-20-20     c0,33.1,0,66.1,0,99.2c0,4.7,0,9.4,0,14.1c0,10.5,9.2,20.5,20,20c10.8-0.5,20-8.8,20-20c0-33.1,0-66.1,0-99.2c0-4.7,0-9.4,0-14.1     c0-10.8-9.2-20-20-20c-38.9,0-77.8,0-116.8,0c-5.5,0-11,0-16.5,0c-10.8,0-20,9.2-20,20c0,33.1,0,66.1,0,99.2c0,4.7,0,9.4,0,14.1     c0,10.8,9.2,20,20,20c38.9,0,77.8,0,116.8,0c5.5,0,11,0,16.5,0c10.5,0,20.5-9.2,20-20C598.2,846.2,589.9,837.1,578.6,837.1z"></path>
                <path d="M384,499.4c-38.9,0-77.8,0-116.8,0c-5.5,0-11,0-16.5,0c6.7,6.7,13.3,13.3,20,20c0-33.1,0-66.1,0-99.2     c0-4.7,0-9.4,0-14.1c-6.7,6.7-13.3,13.3-20,20c38.9,0,77.8,0,116.8,0c5.5,0,11,0,16.5,0c-6.7-6.7-13.3-13.3-20-20     c0,33.1,0,66.1,0,99.2c0,4.7,0,9.4,0,14.1c0,10.5,9.2,20.5,20,20c10.8-0.5,20-8.8,20-20c0-33.1,0-66.1,0-99.2c0-4.7,0-9.4,0-14.1     c0-10.8-9.2-20-20-20c-38.9,0-77.8,0-116.8,0c-5.5,0-11,0-16.5,0c-10.8,0-20,9.2-20,20c0,33.1,0,66.1,0,99.2c0,4.7,0,9.4,0,14.1     c0,10.8,9.2,20,20,20c38.9,0,77.8,0,116.8,0c5.5,0,11,0,16.5,0c10.5,0,20.5-9.2,20-20C403.5,508.6,395.2,499.4,384,499.4z"></path>
                <path d="M384,668.3c-38.9,0-77.8,0-116.8,0c-5.5,0-11,0-16.5,0c6.7,6.7,13.3,13.3,20,20c0-33.1,0-66.1,0-99.2     c0-4.7,0-9.4,0-14.1c-6.7,6.7-13.3,13.3-20,20c38.9,0,77.8,0,116.8,0c5.5,0,11,0,16.5,0c-6.7-6.7-13.3-13.3-20-20     c0,33.1,0,66.1,0,99.2c0,4.7,0,9.4,0,14.1c0,10.5,9.2,20.5,20,20c10.8-0.5,20-8.8,20-20c0-33.1,0-66.1,0-99.2c0-4.7,0-9.4,0-14.1     c0-10.8-9.2-20-20-20c-38.9,0-77.8,0-116.8,0c-5.5,0-11,0-16.5,0c-10.8,0-20,9.2-20,20c0,33.1,0,66.1,0,99.2c0,4.7,0,9.4,0,14.1     c0,10.8,9.2,20,20,20c38.9,0,77.8,0,116.8,0c5.5,0,11,0,16.5,0c10.5,0,20.5-9.2,20-20C403.5,677.4,395.2,668.3,384,668.3z"></path>
                <path d="M384,837.1c-38.9,0-77.8,0-116.8,0c-5.5,0-11,0-16.5,0c6.7,6.7,13.3,13.3,20,20c0-33.1,0-66.1,0-99.2     c0-4.7,0-9.4,0-14.1c-6.7,6.7-13.3,13.3-20,20c38.9,0,77.8,0,116.8,0c5.5,0,11,0,16.5,0c-6.7-6.7-13.3-13.3-20-20     c0,33.1,0,66.1,0,99.2c0,4.7,0,9.4,0,14.1c0,10.5,9.2,20.5,20,20c10.8-0.5,20-8.8,20-20c0-33.1,0-66.1,0-99.2c0-4.7,0-9.4,0-14.1     c0-10.8-9.2-20-20-20c-38.9,0-77.8,0-116.8,0c-5.5,0-11,0-16.5,0c-10.8,0-20,9.2-20,20c0,33.1,0,66.1,0,99.2c0,4.7,0,9.4,0,14.1     c0,10.8,9.2,20,20,20c38.9,0,77.8,0,116.8,0c5.5,0,11,0,16.5,0c10.5,0,20.5-9.2,20-20C403.5,846.2,395.2,837.1,384,837.1z"></path>
                <path d="M780.7,54c-7.9,0-15.7,0-23.6,0c-20.8,0-41.6,0-62.4,0c-29.2,0-58.4,0-87.6,0c-33.3,0-66.7,0-100,0     c-33.1,0-66.2,0-99.4,0c-28.7,0-57.4,0-86.1,0c-19.6,0-39.2,0-58.9,0c-12.4,0-24.7-0.5-37,1.9c-40.3,7.6-68.2,45.3-68.3,85.4     c0,8.9,0,17.8,0,26.7c0,18.4,0,36.8,0,55.2c0,25.6,0,51.3,0,76.9c0,30.8,0,61.6,0,92.3c0,33.3,0,66.7,0,100     c0,33.8,0,67.6,0,101.3c0,31.9,0,63.9,0,95.8c0,28,0,55.9,0,83.9c0,21.4,0,42.9,0,64.3c0,12.8,0,25.6,0,38.4c0,2.4,0,4.9,0,7.3     c0.1,18.9,6,37.4,17.6,52.4c16.4,21.3,41.3,33.8,68.3,34c2.2,0,4.4,0,6.6,0c15.1,0,30.1,0,45.2,0c25.6,0,51.3,0,76.9,0     c32,0,64.1,0,96.1,0c33.8,0,67.5,0,101.3,0c31.3,0,62.6,0,93.9,0c24.5,0,49,0,73.5,0c13.4,0,26.8,0,40.1,0c8,0,16-0.6,23.9-2.4     c25.3-5.8,47.8-24.5,58-48.4c6.5-15.1,7.7-30.3,7.7-46.3c0-14.1,0-28.1,0-42.2c0-22.5,0-45.1,0-67.6c0-28.5,0-57,0-85.5     c0-32.3,0-64.6,0-96.9c0-34,0-68,0-102c0-33.1,0-66.2,0-99.3c0-30.1,0-60.2,0-90.3c0-24.8,0-49.6,0-74.5c0-17.3,0-34.7,0-52     c0-7.4,0-14.8,0-22.2C866.3,93,827.9,54.5,780.7,54c-10.5-0.1-20.5,9.3-20,20c0.5,10.9,8.8,19.9,20,20c1.4,0,2.8,0,4.2,0.1     c0.7,0,1.4,0.1,2.1,0.2c2.2,0.1-1.9-0.3-1.9-0.3c2.8,0.8,5.7,1,8.5,1.8c1.3,0.4,2.5,0.8,3.8,1.2c0.1,0,1.9,0.6,1.9,0.7     c0,0.1-3.7-1.8-1.7-0.7c2.5,1.3,5.1,2.5,7.5,4c1.3,0.8,2.5,1.8,3.8,2.5c2,1.1-1.7-1.1-1.4-1.2c0.2,0,1.3,1.1,1.5,1.2     c2.1,1.8,4.2,3.7,6.1,5.8c0.9,1,1.7,2,2.6,2.9c2.4,2.8-1.9-3,0,0.1c1.5,2.4,3.1,4.7,4.4,7.3c0.6,1.2,1.1,2.4,1.7,3.5     c1,2-0.9-1.7-0.7-1.7c0.1,0,0.6,1.7,0.7,1.9c0.9,2.8,1.7,5.5,2.3,8.3c0.3,1.3,0.3,2.7,0.7,4c0-0.1-0.4-4.2-0.3-1.9     c0,0.7,0.1,1.4,0.2,2.1c0.1,1.4,0.1,2.8,0.1,4.2c0,0.5,0,1,0,1.5c0,8.8,0,17.6,0,26.4c0,18.1,0,36.3,0,54.4c0,25.3,0,50.6,0,75.8     c0,30.2,0,60.4,0,90.6c0,32.9,0,65.9,0,98.8c0,33.5,0,67,0,100.4c0,31.7,0,63.3,0,95c0,28,0,55.9,0,83.9c0,21.9,0,43.8,0,65.7     c0,13.7,0,27.3,0,41c0,3,0,6.1,0,9.1c0,0.5,0,0.9,0,1.4c0,1.6-0.1,3.2-0.2,4.9c0,0.5-0.3,1.5-0.2,2.1c0,0,0.7-4.2,0.3-1.9     c-0.3,1.5-0.5,3.1-0.9,4.6c-0.6,2.6-1.5,5.1-2.3,7.7c-1.1,3.5,1.6-3.2,0,0.1c-0.7,1.4-1.3,2.8-2.1,4.1c-1.3,2.3-2.9,4.4-4.1,6.6     c-1.1,2,1.2-1.7,1.2-1.4c0,0.2-1.1,1.3-1.2,1.5c-1,1.1-2,2.3-3,3.4c-2,2-4.1,3.8-6.2,5.7c-1.6,1.5,1.4-1.3,1.5-1.2     c0,0.1-1.5,1-1.6,1.1c-1.3,0.8-2.5,1.7-3.9,2.4c-1,0.6-6,4-7,3.6c-0.2-0.1,4-1.4,1.7-0.8c-0.6,0.2-1.3,0.5-1.9,0.7     c-1.5,0.5-3,0.9-4.5,1.3c-1.3,0.3-2.6,0.6-3.9,0.9c-0.8,0.1-5.2,1-2,0.4c3.1-0.6-1.3,0-2.1,0.1c-1.2,0.1-2.3,0.1-3.5,0.1     c-2.1,0-4.2,0-6.3,0c-14.7,0-29.4,0-44,0c-25.1,0-50.3,0-75.4,0c-31.4,0-62.8,0-94.2,0c-33.5,0-66.9,0-100.4,0     c-31.3,0-62.6,0-93.8,0c-24.9,0-49.8,0-74.7,0c-14.3,0-28.6,0-42.9,0c-2.8,0-5.6,0.1-8.4-0.1c-1.2,0-3-0.6-4.1-0.3     c0,0,4.2,0.7,1.9,0.3c-0.7-0.1-1.3-0.2-2-0.3c-2.8-0.5-5.7-1.3-8.4-2.2c-0.6-0.2-1.2-0.5-1.9-0.6c-1.5-0.5-1.4,0.2-0.1,0     c1.3-0.2,1.5,0.7,0,0c-0.6-0.3-1.2-0.6-1.8-0.9c-2.5-1.3-5-2.7-7.3-4.2c-0.5-0.4-1-0.8-1.6-1.1c-2-1.1,1.7,1.1,1.4,1.2     c-0.6,0.1-2.5-2.1-3-2.5c-2.1-1.9-4.1-3.9-5.9-6c-0.4-0.5-0.8-1-1.3-1.5c-1.1-1.3-0.2-1.3,0,0c0.1,1.2,0.9,1.3,0-0.1     c-0.3-0.5-0.7-1.1-1.1-1.6c-1.7-2.6-3.1-5.2-4.5-8c-0.1-0.2-0.9-1.6-0.8-1.8c0.1-0.2,1.4,4,0.8,1.7c-0.3-1.3-0.9-2.5-1.3-3.8     c-0.9-2.8-1.5-5.6-2-8.5c-0.7-3.8,0.2,3.8,0-0.1c-0.1-1.4-0.2-2.8-0.2-4.1c0-0.5,0-1,0-1.5c0-0.5,0-1.1,0-1.6c0-3.2,0-6.4,0-9.5     c0-13.9,0-27.8,0-41.7c0-22.1,0-44.2,0-66.3c0-28.1,0-56.2,0-84.3c0-31.9,0-63.8,0-95.7c0-33.5,0-67,0-100.5     c0-32.9,0-65.8,0-98.7c0-30.1,0-60.2,0-90.3c0-25.1,0-50.2,0-75.3c0-17.9,0-35.8,0-53.7c0-8.5,0-17,0-25.5c0-0.4,0-0.8,0-1.2     c0-2,0.8-5,0.4-6.9c0,0-0.7,4.2-0.3,1.9c0.1-0.7,0.2-1.3,0.3-2c0.3-1.5,0.6-3.1,1-4.6c0.4-1.5,0.8-3,1.3-4.5     c0.2-0.6,0.5-1.3,0.7-1.9c0.5-2.3-0.6,2-0.8,1.7c-0.5-1.1,3.3-6.5,3.9-7.6c0.7-1.1,1.4-2.2,2.1-3.3c0.1-0.1,1-1.6,1.1-1.6     c0.1,0-2.6,3.1-1.2,1.5c1.9-2.1,3.6-4.3,5.7-6.2c0.9-0.9,1.9-1.8,2.9-2.6c0.5-0.4,1-0.8,1.5-1.2c1.6-1.5-1.4,1.3-1.5,1.2     c-0.2-0.6,6.4-4.1,7.2-4.5c1.2-0.6,2.3-1.2,3.5-1.8c0.2-0.1,1.6-0.9,1.8-0.8c0.2,0.1-4,1.4-1.7,0.8c2.8-0.7,5.5-1.9,8.3-2.5     c1.3-0.3,2.6-0.5,4-0.8c3.6-0.7-4.4,0.4,0.8,0c1.6-0.1,3.2-0.2,4.9-0.2c8.1-0.1,16.3,0,24.5,0c20.6,0,41.3,0,61.9,0     c28.8,0,57.5,0,86.3,0c33,0,66,0,99,0c32.9,0,65.7,0,98.6,0c28.5,0,57,0,85.6,0c20,0,39.9,0,59.9,0c7.2,0,14.4,0,21.6,0     c10.5,0,20.5-9.2,20-20C800.2,63.2,791.9,54,780.7,54z"></path>
            </g>
        </g>
    </g>
</svg>