<svg height="300" viewBox="0 0 64 64" width="300" xmlns="http://www.w3.org/2000/svg"><path d="m56 3a1 1 0 0 0 -1-1h-46a7.008 7.008 0 0 0 -7 7v48a5.006 5.006 0 0 0 5 5h48a1 1 0 0 0 1-1v-24h4v-6h-4v-2h6v-6h-6v-2h4v-6h-4v-2h6v-6h-6zm-52 40.487v-1.487a1.882 1.882 0 0 1 2-2v-2a4.08 4.08 0 0 0 -2 .487v-22.487a1.882 1.882 0 0 1 2-2v-2a4.08 4.08 0 0 0 -2 .487v-3.487a5.009 5.009 0 0 1 4-4.9v47.9h-1a4.948 4.948 0 0 0 -3 1.026v-6.026a1.882 1.882 0 0 1 2-2v-2a4.08 4.08 0 0 0 -2 .487zm16 16.513h-13a3 3 0 0 1 0-6h4v2h-5v2h5v1a1 1 0 0 0 1.447.9l3.553-1.782 3.553 1.782a1 1 0 0 0 1.447-.9v-1h33v2zm34-6v2h-33v-2zm-41 0h6v3.382l-2.553-1.277a1 1 0 0 0 -.894 0l-2.553 1.277zm45-21v2h-2v-2zm2-8v2h-4v-2zm-2-8v2h-2v-2zm-4 35h-44v-48h44zm6-43v2h-4v-2z"/><path d="m26 12h-4a1 1 0 0 0 -.965.737l-3 11 1.93.526 1.162-4.263h5.746l1.162 4.263 1.93-.526-3-11a1 1 0 0 0 -.965-.737zm-4.327 6 1.091-4h2.472l1.091 4z"/><path d="m31 17h5v2h-5z"/><path d="m45.819 13.573a1 1 0 0 0 -.819-1.573h-8v2h6.08l-5.9 8.427a1 1 0 0 0 .82 1.573h8v-2h-6.08z"/><path d="m14 28h36v-20h-36zm2-18h32v16h-32z"/><path d="m19 36h26v-6h-26zm2-4h22v2h-22z"/><path d="m17 39h4v2h-4z"/><path d="m23 39h18v2h-18z"/><path d="m43 39h4v2h-4z"/><path d="m15 43h34v2h-34z"/><path d="m15 47h34v2h-34z"/></svg>