<svg height='300px' width='300px' fill="#000000" 
    xmlns="http://www.w3.org/2000/svg" viewBox="0 0 64 64" x="0px" y="0px">
    <g>
        <path d="M56,3a1,1,0,0,0-1-1H9A7.008,7.008,0,0,0,2,9V57a5.006,5.006,0,0,0,5,5H55a1,1,0,0,0,1-1V37h4V31H56V29h6V23H56V21h4V15H56V13h6V7H56ZM4,43.487V42a1.882,1.882,0,0,1,2-2V38a4.08,4.08,0,0,0-2,.487V16a1.882,1.882,0,0,1,2-2V12a4.08,4.08,0,0,0-2,.487V9A5.009,5.009,0,0,1,8,4.1V52H7a4.948,4.948,0,0,0-3,1.026V47a1.882,1.882,0,0,1,2-2V43A4.08,4.08,0,0,0,4,43.487ZM20,60H7a3,3,0,0,1,0-6h4v2H6v2h5v1a1,1,0,0,0,1.447.9L16,58.118,19.553,59.9A1,1,0,0,0,21,59V58H54v2Zm34-6v2H21V54ZM13,54h6v3.382l-2.553-1.277a1,1,0,0,0-.894,0L13,57.382ZM58,33v2H56V33Zm2-8v2H56V25Zm-2-8v2H56V17ZM54,52H10V4H54ZM60,9v2H56V9Z"></path>
        <path d="M26,12H22a1,1,0,0,0-.965.737l-3,11,1.93.526L21.127,20h5.746l1.162,4.263,1.93-.526-3-11A1,1,0,0,0,26,12Zm-4.327,6,1.091-4h2.472l1.091,4Z"></path>
        <rect x="31" y="17" width="5" height="2"></rect>
        <path d="M45.819,13.573A1,1,0,0,0,45,12H37v2h6.08l-5.9,8.427A1,1,0,0,0,38,24h8V22H39.92Z"></path>
        <path d="M14,28H50V8H14Zm2-18H48V26H16Z"></path>
        <path d="M19,36H45V30H19Zm2-4H43v2H21Z"></path>
        <rect x="17" y="39" width="4" height="2"></rect>
        <rect x="23" y="39" width="18" height="2"></rect>
        <rect x="43" y="39" width="4" height="2"></rect>
        <rect x="15" y="43" width="34" height="2"></rect>
        <rect x="15" y="47" width="34" height="2"></rect>
    </g>
</svg>