<svg enable-background="new 0 0 998.1 998.3" viewBox="0 0 998.1 998.3" xmlns="http://www.w3.org/2000/svg" xmlns:xlink="http://www.w3.org/1999/xlink"><linearGradient id="a" gradientUnits="userSpaceOnUse" x1="534.3" x2="998.1" y1="433.2" y2="433.2"><stop offset="0" stop-color="#fff" stop-opacity=".2"/><stop offset="1" stop-color="#fff" stop-opacity=".02"/></linearGradient><radialGradient id="b" cx="65.2077" cy="19.3655" gradientUnits="userSpaceOnUse" r="1398.2709"><stop offset="0" stop-color="#fff" stop-opacity=".1"/><stop offset="1" stop-color="#fff" stop-opacity="0"/></radialGradient><path d="m931.7 998.3c36.5 0 66.4-29.4 66.4-65.4v-667.1c0-36-29.9-65.4-66.4-65.4h-648.1l260.1 797.9z" fill="#dbdbdb"/><path d="m931.7 230.4c9.7 0 18.9 3.8 25.8 10.6 6.8 6.7 10.6 15.5 10.6 24.8v667.1c0 9.3-3.7 18.1-10.6 24.8-6.9 6.8-16.1 10.6-25.8 10.6h-366.2l-240.6-737.9zm0-30h-648.1l260.1 797.9h388c36.5 0 66.4-29.4 66.4-65.4v-667.1c0-36-29.9-65.4-66.4-65.4z" fill="#dcdcdc"/><path d="m482.3 809.8 61.4 188.5 170.7-188.5z" fill="#4352b8"/><path d="m936.1 476.1v-39.1h-188.5v-63.2h-61.2v63.2h-120.3v39.1h239.4c-12.8 45.1-41.1 87.7-68.7 120.8-48.9-57.9-49.1-76.7-49.1-76.7h-50.8s2.1 28.2 70.7 108.6c-22.3 22.8-39.2 36.3-39.2 36.3l15.6 48.8s23.6-20.3 53.1-51.6c29.6 32.1 67.8 70.7 117.2 116.7l32.1-32.1c-52.9-48-91.7-86.1-120.2-116.7 38.2-45.2 77-102.1 85.2-154.2h84.6v.1z" fill="#607988"/><path d="m66.4 0c-36.5 0-66.4 29.9-66.4 66.5v677c0 36.5 29.9 66.4 66.4 66.4h648.1l-260.1-809.9z" fill="#4285f4"/><path d="m534.3 200.4h397.4c36.5 0 66.4 29.4 66.4 65.4v400.2z" fill="url(#a)"/><path d="m371.4 430.6c-2.5 30.3-28.4 75.2-91.1 75.2-54.3 0-98.3-44.9-98.3-100.2s44-100.2 98.3-100.2c30.9 0 51.5 13.4 63.3 24.3l41.2-39.6c-27.1-25-62.4-40.6-104.5-40.6-86.1 0-156 69.9-156 156s69.9 156 156 156c90.2 0 149.8-63.3 149.8-152.6 0-12.8-1.6-22.2-3.7-31.8h-146v53.4z" fill="#eee"/><path d="m931.7 200.4h-412.9l-64.4-200.4h-388c-36.5 0-66.4 29.9-66.4 66.5v677c0 36.5 29.9 66.4 66.4 66.4h415.9l61.4 188.4h388c36.5 0 66.4-29.4 66.4-65.4v-266.9-400.2c0-36-29.9-65.4-66.4-65.4z" fill="url(#b)"/></svg>