<svg height="300px" width="300px" fill="#000000" 
    xmlns="http://www.w3.org/2000/svg" 
    xmlns:xlink="http://www.w3.org/1999/xlink" version="1.1" x="0px" y="0px" viewBox="0 0 99.6 44.7">
    <path d="M95.3,0h-91C1.9,0,0,1.9,0,4.3v12.7c0,2.3,1.9,4.3,4.3,4.3h91c2.3,0,4.3-1.9,4.3-4.3V4.3  C99.6,1.9,97.6,0,95.3,0z M16.1,14.8c-2.3,0-4.3-1.9-4.3-4.3c0-2.3,1.9-4.3,4.3-4.3c2.3,0,4.3,1.9,4.3,4.3  C20.4,13,18.4,14.8,16.1,14.8z M27.9,11.8c-0.7,0-1.3-0.5-1.3-1.3c0-0.7,0.5-1.3,1.3-1.3s1.3,0.5,1.3,1.3  C29.2,11.3,28.7,11.8,27.9,11.8z M41.4,16.5c-3.3,0-6-2.7-6-6c0-3.3,2.7-6,6-6c3.3,0,6,2.7,6,6C47.4,13.8,44.7,16.5,41.4,16.5z   M57.9,16.5c-3.3,0-5.9-2.7-5.9-5.9c0-3.3,2.7-6,6-6c3.3,0,6,2.7,6,6C63.9,13.8,61.2,16.5,57.9,16.5z M43.6,25.6L29.1,40.1l4.5,4.6  H66l4.5-4.6L56,25.6C53,22.7,46.3,22.8,43.6,25.6z"></path>
</svg>