<svg height="300" viewBox="0 0 99.6 44.7" width="300" xmlns="http://www.w3.org/2000/svg"><path d="m95.3 0h-91c-2.4 0-4.3 1.9-4.3 4.3v12.7c0 2.3 1.9 4.3 4.3 4.3h91c2.3 0 4.3-1.9 4.3-4.3v-12.7c0-2.4-2-4.3-4.3-4.3zm-79.2 14.8c-2.3 0-4.3-1.9-4.3-4.3 0-2.3 1.9-4.3 4.3-4.3 2.3 0 4.3 1.9 4.3 4.3 0 2.5-2 4.3-4.3 4.3zm11.8-3c-.7 0-1.3-.5-1.3-1.3 0-.7.5-1.3 1.3-1.3s1.3.5 1.3 1.3-.5 1.3-1.3 1.3zm13.5 4.7c-3.3 0-6-2.7-6-6s2.7-6 6-6 6 2.7 6 6-2.7 6-6 6zm16.5 0c-3.3 0-5.9-2.7-5.9-5.9 0-3.3 2.7-6 6-6s6 2.7 6 6c-.1 3.2-2.8 5.9-6.1 5.9zm-14.3 9.1-14.5 14.5 4.5 4.6h32.4l4.5-4.6-14.5-14.5c-3-2.9-9.7-2.8-12.4 0z"/></svg>