<svg enable-background="new 0 0 66 66" height="300" viewBox="0 0 66 66" width="300" xmlns="http://www.w3.org/2000/svg"><path d="m59.3 12.7v5.5c0 .6-.5 1-1 1h-5.5c-.5 0-1-.4-1-1v-1.8h-3.8v1.8c0 .6-.4 1-1 1h-5.5c-.6 0-1-.4-1-1v-1.8h-3.8v1.8c0 .6-.4 1-1 1h-1.7v3.2h1.8c.6 0 1 .4 1 1v5.5c0 .6-.4 1-1 1h-.5l7 7.4c.2.2.3.4.3.7v4.8h1.8c.5 0 1 .5 1 1v5.5c0 .5-.5 1-1 1h-1.8v7.2h1.8c.5 0 1 .5 1 1v5.5c0 .6-.5 1-1 1h-5.5c-.5 0-1-.4-1-1v-5.5c0-.5.5-1 1-1h1.8v-7.2h-1.8c-.5 0-1-.5-1-1v-5.5c0-.5.5-1 1-1h1.8v-4.4l-7.7-7.9-7.5 7.9v4.4h1.8c.6 0 1 .5 1 1v5.5c0 .5-.4 1-1 1h-1.8v7.2h1.8c.6 0 1 .5 1 1v5.5c0 .6-.4 1-1 1h-5.5c-.5 0-1-.4-1-1v-5.5c0-.5.5-1 1-1h1.8v-7.2h-1.8c-.5 0-1-.5-1-1v-5.5c0-.5.5-1 1-1h1.8v-4.8c0-.3.1-.5.3-.7l7-7.4h-.5c-.6 0-1-.4-1-1v-5.5c0-.6.4-1 1-1h1.6v-3.2h-1.8c-.6 0-1-.4-1-1v-1.8h-3.8v1.8c0 .6-.5 1-1 1h-5.4c-.5 0-1-.4-1-1v-1.8h-3.8v1.8c0 .6-.4 1-1 1h-5.5c-.6 0-1-.4-1-1v-5.5c0-.6.4-1 1-1h5.5c.6 0 1 .4 1 1v1.8h3.8v-1.8c0-.6.5-1 1-1h5.5c.5 0 1 .4 1 1v1.8h3.8v-1.8c0-.6.4-1 1-1h1.7v-3.2h-1.8c-.6 0-1-.4-1-1v-5.5c0-.6.4-1 1-1h5.5c.6 0 1 .4 1 1v5.5c0 .6-.4 1-1 1h-1.7v3.2h1.8c.6 0 1 .4 1 1v1.8h3.8v-1.8c0-.6.4-1 1-1h5.4c.6 0 1 .4 1 1v1.8h3.8v-1.8c0-.6.5-1 1-1h5.5c.6 0 1 .5 1 1z"/></svg>