<svg height="300px" width="300px" fill="#000000" 
    xmlns="http://www.w3.org/2000/svg" 
    xmlns:xlink="http://www.w3.org/1999/xlink" version="1.1" x="0px" y="0px" viewBox="0 0 66 66" enable-background="new 0 0 66 66" xml:space="preserve">
    <g>
        <g>
            <g>
                <path d="M59.3,12.7v5.5c0,0.6-0.5,1-1,1h-5.5c-0.5,0-1-0.4-1-1v-1.8H48v1.8c0,0.6-0.4,1-1,1h-5.5c-0.6,0-1-0.4-1-1v-1.8h-3.8v1.8     c0,0.6-0.4,1-1,1H34v3.2h1.8c0.6,0,1,0.4,1,1v5.5c0,0.6-0.4,1-1,1h-0.5l7,7.4c0.2,0.2,0.3,0.4,0.3,0.7v4.8h1.8c0.5,0,1,0.5,1,1     v5.5c0,0.5-0.5,1-1,1h-1.8v7.2h1.8c0.5,0,1,0.5,1,1V64c0,0.6-0.5,1-1,1h-5.5c-0.5,0-1-0.4-1-1v-5.5c0-0.5,0.5-1,1-1h1.8v-7.2     h-1.8c-0.5,0-1-0.5-1-1v-5.5c0-0.5,0.5-1,1-1h1.8v-4.4L33,30.5l-7.5,7.9v4.4h1.8c0.6,0,1,0.5,1,1v5.5c0,0.5-0.4,1-1,1h-1.8v7.2     h1.8c0.6,0,1,0.5,1,1V64c0,0.6-0.4,1-1,1h-5.5c-0.5,0-1-0.4-1-1v-5.5c0-0.5,0.5-1,1-1h1.8v-7.2h-1.8c-0.5,0-1-0.5-1-1v-5.5     c0-0.5,0.5-1,1-1h1.8V38c0-0.3,0.1-0.5,0.3-0.7l7-7.4h-0.5c-0.6,0-1-0.4-1-1v-5.5c0-0.6,0.4-1,1-1H32v-3.2h-1.8c-0.6,0-1-0.4-1-1     v-1.8h-3.8v1.8c0,0.6-0.5,1-1,1H19c-0.5,0-1-0.4-1-1v-1.8h-3.8v1.8c0,0.6-0.4,1-1,1H7.7c-0.6,0-1-0.4-1-1v-5.5c0-0.6,0.4-1,1-1     h5.5c0.6,0,1,0.4,1,1v1.8H18v-1.8c0-0.6,0.5-1,1-1h5.5c0.5,0,1,0.4,1,1v1.8h3.8v-1.8c0-0.6,0.4-1,1-1H32V8.5h-1.8     c-0.6,0-1-0.4-1-1V2c0-0.6,0.4-1,1-1h5.5c0.6,0,1,0.4,1,1v5.5c0,0.6-0.4,1-1,1H34v3.2h1.8c0.6,0,1,0.4,1,1v1.8h3.8v-1.8     c0-0.6,0.4-1,1-1H47c0.6,0,1,0.4,1,1v1.8h3.8v-1.8c0-0.6,0.5-1,1-1h5.5C58.9,11.7,59.3,12.2,59.3,12.7z"></path>
            </g>
        </g>
    </g>
</svg>