<svg enable-background="new 0 0 100 100" height="300" viewBox="0 0 100 100" width="300" xmlns="http://www.w3.org/2000/svg"><path d="m31.1 47.889 14.095-.656-7.321-7.539-10.927-2.623-19.777 1.421 10.38 2.295z"/><path d="m32.245 52.257-13.549.653s-10.926 5.356-10.599 5.464c.328.11 19.23 25.458 19.23 25.458l9.397-5.79 7.976-7.866z"/><path d="m62.293 73.453c0 .328-14.642-.765-14.642-.765l-3.934 12.455-4.042 10.491 21.633 4.479 3.389-12.239c0 .001-2.404-14.749-2.404-14.421z"/><path d="m55.408 47.011-4.478 3.387 13.111 19.778 9.834 5.354 5.9 5.245-20.431-30.922z"/><path d="m35.316 48.847c-.422 2.365.257 5.379 1.872 8.5l3.978 5.724c.427.482.875.961 1.343 1.428 6.725 6.73 15.079 9.289 18.657 5.714l.918-.902-1.428-2.153c-.166.679-.457 1.246-.877 1.667-.693.692-1.725 1.042-3.066 1.042-3.687 0-8.719-2.65-12.816-6.751-5.326-5.33-7.416-11.184-6.541-14.363z"/><path d="m82.238 25.327c-2.01-2.012-4.168-3.649-6.299-4.862v-11.93c0-1.614-.965-2.738-1.977-2.827l-3.67-.417s-.865 0-1.371.12l-4.831.836v-5.903c0-.141-.607-.254-1.355-.254-.75 0-1.357.113-1.357.254v6.374l-8.974 1.555c-1.015.267-2.296.983-2.296 4.114l.058 20.372-8.927 8.744 4.785 4.928 1.6 1.647c.825.441 1.655.95 2.479 1.522.041-.043.083-.085.132-.122l4.481-3.388c.205-.156.449-.233.693-.233.238 0 .475.072.676.218l3.934 2.841c.113.082.211.183.287.299l8.76 13.258 18.871-18.487c3.579-3.575 1.026-11.929-5.699-18.659zm-6.299 2.108.916-.887c.342-.331.887-.322 1.219.02s.322.887-.02 1.218l-2.115 2.045zm0 5.17 3.807-3.679c.342-.33.887-.321 1.219.02.328.341.32.887-.023 1.218l-5.002 4.837v-2.396zm0 5.426 6.307-6.096c.342-.33.885-.321 1.217.02.33.343.322.888-.02 1.218l-7.504 7.254zm0 5.474 8.154-7.884c.342-.331.887-.322 1.219.021.328.341.32.886-.023 1.217l-9.35 9.042zm-19.242-34.07 4.68-.755v.729c0 .14.607.254 1.357.254.748 0 1.355-.114 1.355-.254v-1.168l6.83-1.102s.268.357.238 1.729l.004 9.576c-3.141-.836-5.893-.516-7.58 1.171l-8.734 8.557-.029-15.934c.09-1.551.686-2.595 1.879-2.803zm-6.669 28.825c-.225 0-.452-.088-.62-.264-.331-.341-.322-.887.02-1.217l15.982-15.451c.34-.331.887-.322 1.217.02.33.343.322.888-.02 1.218l-15.98 15.451c-.169.162-.383.243-.599.243zm5.102.679c-.167.162-.383.242-.599.242-.225 0-.449-.088-.619-.262-.33-.343-.322-.888.021-1.219l15.979-15.45c.344-.331.887-.322 1.219.02.012.014.021.029.033.043v1.112c-.018.021-.033.044-.053.064zm3.718 1.674c-.166.162-.383.242-.598.242-.225 0-.451-.088-.619-.262-.332-.342-.322-.887.02-1.218l13.516-13.067v2.396zm2.629 2.866c-.227 0-.451-.086-.619-.263-.332-.341-.322-.887.02-1.217l10.291-9.951.002 2.396-9.096 8.793c-.169.161-.384.242-.598.242zm2.886 2.379c-.225 0-.449-.088-.617-.263-.332-.342-.322-.887.02-1.219l7.404-7.16v2.396l-6.207 6.002c-.166.163-.383.244-.6.244zm2.5 3.008c-.225 0-.449-.087-.619-.262-.33-.342-.32-.887.021-1.217l4.906-4.746.002 2.395-3.711 3.589c-.165.161-.382.241-.599.241zm1.85 3.688c-.225 0-.449-.088-.619-.265-.33-.341-.322-.887.021-1.218l4.381-4.236 2.438.039-5.623 5.436c-.166.164-.383.244-.598.244zm18.057-11.457-15.98 15.451c-.168.164-.383.243-.598.243-.227 0-.451-.087-.619-.263-.332-.342-.322-.888.02-1.219l15.98-15.451c.34-.33.885-.321 1.217.021.331.343.321.888-.02 1.218z"/></svg>