<svg height='300px' width='300px' fill="#000000" 
    xmlns="http://www.w3.org/2000/svg" 
    xmlns:xlink="http://www.w3.org/1999/xlink" version="1.1" x="0px" y="0px" viewBox="0 0 100 100" enable-background="new 0 0 100 100" xml:space="preserve">
    <g>
        <polygon points="31.1,47.889 45.195,47.233 37.874,39.694 26.947,37.071 7.17,38.492 17.55,40.787  "></polygon>
        <path d="M32.245,52.257L18.696,52.91c0,0-10.926,5.356-10.599,5.464c0.328,0.11,19.23,25.458,19.23,25.458l9.397-5.79l7.976-7.866   L32.245,52.257z"></path>
        <path d="M62.293,73.453c0,0.328-14.642-0.765-14.642-0.765l-3.934,12.455l-4.042,10.491l21.633,4.479l3.389-12.239   C64.697,87.875,62.293,73.125,62.293,73.453z"></path>
        <polygon points="55.408,47.011 50.93,50.398 64.041,70.176 73.875,75.53 79.775,80.775 59.344,49.853  "></polygon>
        <path d="M35.316,48.847c-0.422,2.365,0.257,5.379,1.872,8.5l3.978,5.724c0.427,0.482,0.875,0.961,1.343,1.428   c6.725,6.73,15.079,9.289,18.657,5.714l0.918-0.902l-1.428-2.153c-0.166,0.679-0.457,1.246-0.877,1.667   c-0.693,0.692-1.725,1.042-3.066,1.042l0,0c-3.687,0-8.719-2.65-12.816-6.751c-5.326-5.33-7.416-11.184-6.541-14.363L35.316,48.847   z"></path>
        <path d="M82.238,25.327c-2.01-2.012-4.168-3.649-6.299-4.862V8.535c0-1.614-0.965-2.738-1.977-2.827l-3.67-0.417   c0,0-0.865,0-1.371,0.12L64.09,6.247V0.344c0-0.141-0.607-0.254-1.355-0.254c-0.75,0-1.357,0.113-1.357,0.254v6.374l-8.974,1.555   c-1.015,0.267-2.296,0.983-2.296,4.114l0.058,20.372l-8.927,8.744l4.785,4.928l1.6,1.647c0.825,0.441,1.655,0.95,2.479,1.522   c0.041-0.043,0.083-0.085,0.132-0.122l4.481-3.388c0.205-0.156,0.449-0.233,0.693-0.233c0.238,0,0.475,0.072,0.676,0.218   l3.934,2.841c0.113,0.082,0.211,0.183,0.287,0.299l8.76,13.258l18.871-18.487C91.516,40.411,88.963,32.057,82.238,25.327z    M75.939,27.435l0.916-0.887c0.342-0.331,0.887-0.322,1.219,0.02s0.322,0.887-0.02,1.218l-2.115,2.045V27.435z M75.939,32.605   l3.807-3.679c0.342-0.33,0.887-0.321,1.219,0.02c0.328,0.341,0.32,0.887-0.023,1.218l-5.002,4.837V32.605z M75.939,38.031   l6.307-6.096c0.342-0.33,0.885-0.321,1.217,0.02c0.33,0.343,0.322,0.888-0.02,1.218l-7.504,7.254V38.031z M75.939,43.505   l8.154-7.884c0.342-0.331,0.887-0.322,1.219,0.021c0.328,0.341,0.32,0.886-0.023,1.217l-9.35,9.042V43.505z M56.697,9.435   l4.68-0.755v0.729c0,0.14,0.607,0.254,1.357,0.254c0.748,0,1.355-0.114,1.355-0.254V8.241l6.83-1.102c0,0,0.268,0.357,0.238,1.729   l0.004,9.576c-3.141-0.836-5.893-0.516-7.58,1.171l-8.734,8.557l-0.029-15.934C54.908,10.687,55.504,9.643,56.697,9.435z    M50.028,38.26c-0.225,0-0.452-0.088-0.62-0.264c-0.331-0.341-0.322-0.887,0.02-1.217L65.41,21.328   c0.34-0.331,0.887-0.322,1.217,0.02c0.33,0.343,0.322,0.888-0.02,1.218l-15.98,15.451C50.458,38.179,50.244,38.26,50.028,38.26z    M55.13,38.939c-0.167,0.162-0.383,0.242-0.599,0.242c-0.225,0-0.449-0.088-0.619-0.262c-0.33-0.343-0.322-0.888,0.021-1.219   L69.912,22.25c0.344-0.331,0.887-0.322,1.219,0.02c0.012,0.014,0.021,0.029,0.033,0.043v1.112   c-0.018,0.021-0.033,0.044-0.053,0.064L55.13,38.939z M58.848,40.613c-0.166,0.162-0.383,0.242-0.598,0.242   c-0.225,0-0.451-0.088-0.619-0.262c-0.332-0.342-0.322-0.887,0.02-1.218l13.516-13.067v2.396L58.848,40.613z M61.477,43.479   c-0.227,0-0.451-0.086-0.619-0.263c-0.332-0.341-0.322-0.887,0.02-1.217l10.291-9.951l0.002,2.396l-9.096,8.793   C61.906,43.398,61.691,43.479,61.477,43.479z M64.363,45.858c-0.225,0-0.449-0.088-0.617-0.263   c-0.332-0.342-0.322-0.887,0.02-1.219l7.404-7.16v2.396l-6.207,6.002C64.797,45.777,64.58,45.858,64.363,45.858z M66.863,48.866   c-0.225,0-0.449-0.087-0.619-0.262c-0.33-0.342-0.32-0.887,0.021-1.217l4.906-4.746l0.002,2.395l-3.711,3.589   C67.297,48.786,67.08,48.866,66.863,48.866z M68.713,52.554c-0.225,0-0.449-0.088-0.619-0.265c-0.33-0.341-0.322-0.887,0.021-1.218   l4.381-4.236l2.438,0.039l-5.623,5.436C69.145,52.474,68.928,52.554,68.713,52.554z M86.77,41.097l-15.98,15.451   c-0.168,0.164-0.383,0.243-0.598,0.243c-0.227,0-0.451-0.087-0.619-0.263c-0.332-0.342-0.322-0.888,0.02-1.219l15.98-15.451   c0.34-0.33,0.885-0.321,1.217,0.021C87.121,40.222,87.111,40.767,86.77,41.097z"></path>
    </g>
</svg>