<svg height='300px' width='300px' fill="#000000" 
    xmlns="http://www.w3.org/2000/svg" 
    xmlns:xlink="http://www.w3.org/1999/xlink" version="1.1" x="0px" y="0px" viewBox="0 0 100 100" enable-background="new 0 0 100 100" xml:space="preserve">
    <path d="M33.907,91.172c0.004,0.034,0.009,0.067,0.02,0.1c0.011,0.031,0.026,0.059,0.042,0.087c0.016,0.026,0.031,0.053,0.052,0.076  c0.023,0.027,0.051,0.049,0.08,0.07c0.016,0.012,0.026,0.029,0.044,0.039l7.602,4.396c0.001,0,0.002,0,0.002,0.001  c0.008,0.004,0.017,0.003,0.023,0.007c0.068,0.035,0.143,0.06,0.225,0.06s0.156-0.024,0.225-0.06  c0.007-0.004,0.016-0.003,0.023-0.007c0-0.001,0.001-0.001,0.002-0.001l7.599-4.395c0.001-0.001,0.002,0,0.003-0.001l7.613-4.385  c0.02-0.012,0.031-0.029,0.049-0.043c0.026-0.021,0.052-0.04,0.073-0.064c0.022-0.025,0.039-0.053,0.056-0.082  c0.015-0.026,0.029-0.052,0.039-0.081c0.013-0.034,0.018-0.068,0.021-0.104c0.002-0.021,0.012-0.038,0.012-0.059v-1.714l3.457-2  c0.018-0.01,0.028-0.027,0.044-0.039c0.029-0.021,0.057-0.043,0.08-0.07c0.021-0.023,0.036-0.05,0.052-0.076  c0.016-0.028,0.031-0.056,0.042-0.087c0.011-0.032,0.016-0.065,0.02-0.1c0.003-0.021,0.013-0.039,0.013-0.061V57.057l6.98-4.021  c0.001-0.001,0.002-0.002,0.003-0.003l9.042-5.227c0.019-0.011,0.029-0.028,0.046-0.041c0.027-0.021,0.053-0.041,0.075-0.067  c0.021-0.023,0.037-0.049,0.053-0.076c0.017-0.028,0.031-0.056,0.043-0.086c0.01-0.03,0.016-0.06,0.021-0.091  c0.005-0.032,0.008-0.062,0.006-0.094c-0.001-0.034-0.009-0.066-0.017-0.099c-0.006-0.02-0.003-0.04-0.011-0.06l-9.045-23.33  c-0.005-0.012-0.014-0.019-0.02-0.03c-0.006-0.013-0.006-0.026-0.013-0.039c-0.011-0.019-0.029-0.031-0.042-0.048  c-0.021-0.026-0.04-0.051-0.064-0.072c-0.025-0.022-0.052-0.04-0.081-0.056c-0.025-0.015-0.051-0.029-0.079-0.039  c-0.033-0.012-0.065-0.018-0.101-0.022c-0.026-0.004-0.052-0.008-0.079-0.007c-0.011,0-0.021-0.004-0.031-0.003l-6.599,0.586v-9.866  c0-0.011-0.005-0.02-0.006-0.03c-0.001-0.021-0.005-0.042-0.009-0.063c-0.005-0.023-0.01-0.045-0.018-0.068  c-0.008-0.021-0.016-0.042-0.026-0.062c-0.004-0.009-0.004-0.019-0.009-0.027s-0.014-0.013-0.019-0.021  c-0.013-0.019-0.025-0.036-0.04-0.053c-0.017-0.018-0.032-0.034-0.051-0.05c-0.017-0.014-0.032-0.027-0.051-0.039  c-0.009-0.006-0.014-0.015-0.022-0.02L46.042,5.038c-0.02-0.011-0.041-0.012-0.062-0.021c-0.031-0.013-0.062-0.025-0.095-0.032  c-0.03-0.006-0.059-0.006-0.089-0.006c-0.035,0-0.068,0-0.104,0.007c-0.029,0.006-0.057,0.018-0.084,0.029  c-0.022,0.009-0.046,0.01-0.067,0.023l-15.214,8.794c-0.01,0.005-0.015,0.015-0.023,0.021c-0.018,0.012-0.033,0.024-0.05,0.038  c-0.019,0.016-0.034,0.032-0.051,0.05c-0.015,0.017-0.027,0.034-0.04,0.053c-0.005,0.008-0.014,0.013-0.019,0.021  s-0.005,0.019-0.009,0.027c-0.011,0.02-0.019,0.04-0.026,0.062c-0.008,0.022-0.013,0.044-0.018,0.068  c-0.004,0.021-0.008,0.042-0.009,0.063c-0.001,0.01-0.006,0.019-0.006,0.03v17.606l-1.086,0.631  c-0.008,0.005-0.013,0.013-0.021,0.018c-0.019,0.012-0.035,0.025-0.052,0.04c-0.019,0.016-0.035,0.033-0.051,0.051  c-0.015,0.017-0.027,0.033-0.039,0.051c-0.006,0.008-0.015,0.013-0.02,0.021s-0.005,0.019-0.01,0.028  c-0.01,0.02-0.018,0.04-0.025,0.062c-0.008,0.022-0.014,0.044-0.019,0.068c-0.004,0.021-0.007,0.042-0.008,0.063  c-0.001,0.01-0.006,0.019-0.006,0.03v9.457l-4.875,2.822c-0.001,0-0.001,0-0.002,0.001l-0.014,0.008  c-0.018,0.01-0.028,0.027-0.044,0.039c-0.024,0.018-0.049,0.035-0.069,0.057c-0.009,0.01-0.019,0.018-0.026,0.028  c-0.015,0.018-0.022,0.039-0.034,0.059c-0.015,0.025-0.029,0.048-0.04,0.075c-0.004,0.012-0.01,0.023-0.014,0.035  c-0.007,0.022-0.006,0.045-0.01,0.068c-0.004,0.029-0.009,0.057-0.008,0.087c0.001,0.011-0.004,0.02-0.003,0.03  c0,0.003,0.002,0.005,0.003,0.008c0.002,0.023,0.013,0.045,0.019,0.068c0.006,0.02,0.003,0.04,0.011,0.06l5.106,13.146v26.212  c0,0.021,0.01,0.04,0.013,0.061c0.004,0.034,0.009,0.067,0.02,0.1c0.011,0.031,0.025,0.059,0.042,0.086  c0.016,0.027,0.031,0.054,0.052,0.077c0.022,0.026,0.049,0.048,0.077,0.068c0.017,0.013,0.027,0.03,0.046,0.041l4.902,2.84v2.644  C33.895,91.133,33.904,91.151,33.907,91.172z M41.496,94.642l-6.602-3.818v-1.778l6.602,3.81V94.642z M49.098,90.823l-6.602,3.818  V93.43l0.071,0.041c0.001,0,0.001,0,0.002,0c0.007,0.005,0.016,0.004,0.022,0.008c0.068,0.034,0.143,0.059,0.225,0.059  s0.156-0.024,0.225-0.059c0.008-0.005,0.017-0.004,0.024-0.009h0.001l6.031-3.483V90.823z M42.351,44.612  C42.351,44.613,42.352,44.613,42.351,44.612l0.005,0.012c0,0,0,0.001,0.001,0.001l2.278,5.864c0,0.001,0,0.001,0,0.002l0.405,1.072  c0,0.001,0.001,0.001,0.002,0.002c0,0.001,0,0.001,0,0.002l4.372,11.271l-6.843,3.951c-0.001,0-0.002,0-0.003,0.001l-1.333,0.761  l-8.681-22.387l8.171-4.713L42.351,44.612z M41.96,40.863l0.356,0.204v0.708L41.96,40.863z M43.763,44.174  c0.004,0.035,0.009,0.067,0.02,0.1c0.011,0.031,0.026,0.059,0.043,0.086c0.016,0.027,0.03,0.053,0.052,0.077  c0.022,0.027,0.05,0.047,0.078,0.069c0.017,0.013,0.027,0.03,0.046,0.041l1.542,0.887c0.001,0,0.001,0,0.002,0  c0.007,0.004,0.016,0.003,0.023,0.007c0.067,0.035,0.142,0.059,0.224,0.059s0.156-0.024,0.224-0.059  c0.008-0.004,0.018-0.003,0.024-0.007c0.001,0,0.001,0,0.002,0l4.948-2.859v1.333c0,0.022,0.01,0.041,0.013,0.062  c0.004,0.034,0.009,0.067,0.021,0.101c0.011,0.031,0.025,0.058,0.042,0.086c0.016,0.027,0.031,0.053,0.052,0.076  c0.023,0.027,0.051,0.048,0.08,0.069c0.017,0.013,0.027,0.03,0.046,0.041l1.605,0.914l-7.491,4.335l-2.041-5.253v-3.272l0.434-0.251  v3.299C43.75,44.135,43.76,44.153,43.763,44.174z M55.307,36.744l-2.814-1.621l2.814-1.621l2.807,1.621L55.307,36.744z   M58.613,35.989v1.332v4.9v1.312v0.083l-2.806,1.621v-7.628L58.613,35.989z M54.808,37.609v7.625l-0.7-0.415  c-0.002-0.001-0.003-0.001-0.005-0.001c-0.001-0.001-0.002-0.002-0.003-0.003l-2.109-1.201v-1.909v-5.719L54.808,37.609z   M53.988,45.912l-8.221,4.748l-0.047-0.126l8.129-4.705L53.988,45.912z M56.711,86.437l-6.613,3.81v-0.837l6.613-3.819V86.437z   M60.418,82.292l-3.457,2l-7.613,4.396l-6.031,3.483V67.513l6.969-4.023l10.133-5.855V82.292z M60.668,56.334  c-0.001,0.001-0.002,0.002-0.003,0.003L50.29,62.332l-4.161-10.727l8.853-5.112l0.079,0.045c0,0,0,0,0.001,0  c0.007,0.004,0.015,0.003,0.022,0.006c0.067,0.035,0.142,0.059,0.224,0.059s0.156-0.024,0.225-0.06  c0.008-0.004,0.017-0.003,0.024-0.007h0.001l3.806-2.198c0.019-0.011,0.029-0.028,0.046-0.041c0.028-0.021,0.055-0.042,0.077-0.068  c0.021-0.024,0.037-0.05,0.053-0.078c0.017-0.028,0.031-0.054,0.042-0.085c0.011-0.033,0.016-0.066,0.021-0.101  c0.002-0.021,0.012-0.039,0.012-0.061v-0.083l3.752-2.167l4.162,10.727L60.668,56.334z M61.506,25.135l4.427-0.394l-4.427,2.55  V25.135z M61.506,28.445l6.388-3.678l8.679,22.387l-8.169,4.723L64.086,40.75c0,0,0,0,0-0.001l-2.58-6.628V28.445z M61.418,36.651  l1.495,3.84l-1.495,0.133V36.651z M61.41,41.629l-1.797,1.038v-0.159l1.459-0.849L61.41,41.629z M59.613,41.352v-3.744l0.805-0.468  v3.744L59.613,41.352z M60.506,24.677v3.479v6.059v1.718l-0.893,0.519v-1.329c0-0.011-0.005-0.02-0.006-0.03  c-0.001-0.021-0.004-0.042-0.009-0.063c-0.004-0.023-0.01-0.045-0.018-0.068c-0.008-0.022-0.016-0.042-0.026-0.062  c-0.004-0.009-0.004-0.019-0.009-0.027s-0.014-0.013-0.019-0.021c-0.013-0.019-0.025-0.036-0.041-0.053  c-0.016-0.018-0.031-0.034-0.05-0.05c-0.017-0.015-0.033-0.027-0.051-0.04c-0.009-0.005-0.014-0.015-0.022-0.02l-3.806-2.198  c-0.019-0.01-0.038-0.011-0.058-0.019c-0.033-0.014-0.065-0.027-0.101-0.034c-0.029-0.005-0.057-0.006-0.086-0.006  c-0.035,0-0.068,0-0.103,0.007c-0.032,0.006-0.062,0.019-0.093,0.031c-0.02,0.009-0.041,0.009-0.06,0.021l-3.818,2.198  c-0.009,0.005-0.014,0.014-0.022,0.02c-0.019,0.012-0.036,0.026-0.053,0.041c-0.018,0.015-0.033,0.03-0.048,0.048  c-0.015,0.017-0.028,0.034-0.04,0.052c-0.006,0.009-0.016,0.014-0.021,0.023s-0.005,0.02-0.01,0.029  c-0.01,0.019-0.017,0.038-0.023,0.058c-0.009,0.023-0.015,0.045-0.019,0.068c-0.005,0.022-0.008,0.043-0.009,0.066  c-0.001,0.01-0.006,0.018-0.006,0.028v6.295l-4.698,2.715V23.336l14.214-8.205V24.677z M45.792,6.049l14.214,8.216L45.792,22.47  l-14.214-8.205L45.792,6.049z M31.078,15.131l14.214,8.205v20.799l-0.542-0.312v-3.878c0-0.008-0.006-0.015-0.007-0.024  c-0.003-0.078-0.019-0.155-0.061-0.227c-0.041-0.071-0.101-0.123-0.165-0.165c-0.007-0.004-0.01-0.013-0.018-0.018l-13.422-7.754  V15.131z M30.675,32.681l12.577,7.266L42.814,40.2l-1.587-0.907c0,0-0.001,0-0.001,0l-10.987-6.358L30.675,32.681z M29.743,33.802  l9.618,5.566l-6.257,0.551c-0.003,0-0.005,0.002-0.008,0.002c-0.037,0.004-0.071,0.019-0.106,0.031  c-0.028,0.01-0.059,0.015-0.084,0.029c-0.003,0.001-0.006,0.001-0.009,0.003l-3.154,1.829V33.802z M29.492,43.113  c0.001,0,0.001,0,0.002,0l3.81-2.208l5.468-0.481l-6.992,4.033l-5.465,0.496L29.492,43.113z M29.707,58.706l-0.003-0.008  c0-0.001-0.001-0.003-0.001-0.004l-4.895-12.601l6.795-0.617l8.67,22.358l-6.794,0.617l-3.77-9.742  C29.709,58.709,29.708,58.708,29.707,58.706z M29.743,84.907V61.57l2.938,7.595c0.002,0.006,0.009,0.009,0.012,0.015  c0.035,0.082,0.091,0.148,0.16,0.2c0.016,0.012,0.029,0.019,0.045,0.028c0.075,0.044,0.157,0.076,0.249,0.076h0.001  c0.016,0,0.03-0.001,0.045-0.002l7.831-0.711c0.021-0.002,0.039-0.014,0.06-0.018c0.025-0.006,0.051-0.005,0.076-0.015  c0.01-0.004,0.016-0.012,0.024-0.016c0.012-0.006,0.024-0.008,0.036-0.014c0.002-0.001,0.005-0.001,0.007-0.002l1.089-0.622v24.088  l-0.071-0.041c-0.001,0-0.001,0-0.002-0.001l-7.596-4.383c-0.001-0.001-0.001-0.002-0.002-0.002L29.743,84.907z"></path>
</svg>