<svg height="100" width="124.60606" xmlns="http://www.w3.org/2000/svg" xmlns:xlink="http://www.w3.org/1999/xlink"><linearGradient id="a"><stop offset="0" stop-color="#fff"/><stop offset="1" stop-color="#fff" stop-opacity="0"/></linearGradient><linearGradient id="b" gradientUnits="userSpaceOnUse" x1="176.014291" x2="74.918818" y1="355.000097" y2="155.000027"><stop offset="0" stop-color="#f00"/><stop offset="1" stop-color="#ffe0e0"/></linearGradient><linearGradient id="c" gradientTransform="matrix(.545556 0 0 .350255 -38.51666 72.6073)" gradientUnits="userSpaceOnUse" x1="139.43112" x2="222.73912" xlink:href="#a" y1="520.74255" y2="520.74255"/><linearGradient id="d" gradientUnits="userSpaceOnUse" x1="304.900823" x2="204.360332" y1="224.999977" y2="25.000001"><stop offset="0" stop-color="#00f"/><stop offset="1" stop-color="#e0e0ff"/></linearGradient><linearGradient id="e" gradientTransform="matrix(.545558 0 0 .350255 91.4834 -57.3926)" gradientUnits="userSpaceOnUse" x1="139.62971" x2="222.73819" xlink:href="#a" y1="520.74225" y2="520.74225"/><linearGradient id="f" gradientUnits="userSpaceOnUse" x1="349.596666" x2="450.59755" y1="119.999961" y2="319.999977"><stop offset="0" stop-color="#ffffe0"/><stop offset="1" stop-color="#ff0"/></linearGradient><linearGradient id="g" gradientTransform="matrix(.545558 0 0 .350255 236.4833 37.6074)" gradientUnits="userSpaceOnUse" x1="139.43103" x2="222.73837" xlink:href="#a" y1="520.74225" y2="520.74225"/><g transform="matrix(.16969696 0 0 .16969696 17.757576 17.75758)"><g><path d="m69.33962 154.99997h111.32077c24.56415 0 44.33961 19.77547 44.33961 44.33962v111.32078c0 24.56414-19.77546 44.33961-44.33961 44.33961h-111.32077c-24.564144 0-44.33962-19.77547-44.33962-44.33961v-111.32078c0-24.56415 19.775476-44.33962 44.33962-44.33962z" fill="url(#b)"/><path d="m182.05654 230.00562c-48.53089.52516-61.79585 56.69111-104.89889 57.24964-18.6358.23541-34.530378-12.5544-52.157599-27.69878v51.65226c0 24.24869 19.796853 43.79127 44.361069 43.79124h111.31955c24.56422 0 44.31938-19.54253 44.31938-43.79124v-70.25531c-12.03236-6.60668-25.96585-11.13587-42.94351-10.94781z" fill="#f00" fill-rule="evenodd" opacity=".25"/><rect fill="url(#c)" height="150" rx="17.843672" width="33" x="50" y="179.99998"/><path d="m69.46811 161.34322h111.19211c21.12816 0 37.9969 16.87873 37.9969 38.00595v111.32031c0 21.13499-16.86549 37.98752-37.9969 37.98752h-111.32032c-21.131502 0-37.9969-16.86042-37.9969-37.98752v-111.35844c0-21.13196 16.99051-37.96782 38.12511-37.96782z" style="fill:none;stroke:#800000;stroke-width:12.686;stroke-linejoin:round;stroke-miterlimit:20;stroke-opacity:.501961"/></g><g><path d="m199.33962 24.99998h111.32078c24.56415 0 44.3396 19.77547 44.3396 44.3396v111.32079c0 24.56414-19.77545 44.33961-44.3396 44.33961h-111.32078c-24.56414 0-44.33962-19.77547-44.33962-44.33961v-111.32079c0-24.56413 19.77548-44.3396 44.33962-44.3396z" fill="url(#d)"/><path d="m312.05649 100.00562c-48.53089.52518-61.79584 56.69112-104.89889 57.24965-18.63581.2354-34.53038-12.55441-52.1576-27.69879v51.65227c0 24.24868 19.79685 43.79126 44.36106 43.79123h111.31957c24.5642 0 44.31937-19.54253 44.31937-43.79123v-70.25531c-12.03236-6.60669-25.96585-11.13588-42.94351-10.94782z" fill="#00f" fill-rule="evenodd" opacity=".25"/><rect fill="url(#e)" height="150" rx="17.843672" width="33" x="180" y="49.999981"/><path d="m199.46811 31.34322h111.19211c21.12816 0 37.9969 16.87873 37.9969 38.00595v111.32031c0 21.13499-16.86549 37.98752-37.9969 37.98752h-111.32032c-21.1315 0-37.9969-16.86042-37.9969-37.98752v-111.35844c0-21.13196 16.99051-37.96782 38.12511-37.96782z" style="fill:none;stroke:#000080;stroke-width:12.686;stroke-linejoin:round;stroke-miterlimit:20;stroke-opacity:.501961"/></g><g><path d="m344.33962 119.99997h111.32077c24.56415 0 44.33961 19.77547 44.33961 44.33962v111.32078c0 24.56414-19.77546 44.33961-44.33961 44.33961h-111.32077c-24.56415 0-44.33962-19.77547-44.33962-44.33961v-111.32078c0-24.56415 19.77547-44.33962 44.33962-44.33962z" fill="url(#f)"/><path d="m457.05649 195.00562c-48.53089.52517-61.79584 56.69111-104.89889 57.24964-18.63581.23541-34.53038-12.5544-52.1576-27.69879v51.65228c0 24.24868 19.79685 43.79126 44.36106 43.79123h111.31957c24.56421 0 44.31937-19.54253 44.31937-43.79123v-70.25532c-12.03236-6.60669-25.96584-11.13587-42.94351-10.94781z" fill="#c0c000" fill-rule="evenodd" opacity=".25"/><rect fill="url(#g)" height="150" rx="17.843672" width="33" x="325" y="144.99998"/><path d="m344.46811 126.34322h111.19211c21.12816 0 37.9969 16.87873 37.9969 38.00595v111.32031c0 21.13499-16.86549 37.98752-37.9969 37.98752h-111.32032c-21.1315 0-37.9969-16.86042-37.9969-37.98752v-111.35844c0-21.13196 16.99051-37.96782 38.12511-37.96782z" style="fill:none;stroke:#808000;stroke-width:12.686;stroke-linejoin:round;stroke-miterlimit:20;stroke-opacity:.501961"/></g></g></svg>